<svg xmlns="http://www.w3.org/2000/svg" width="162.992" height="48.041" viewBox="0 0 162.992 48.041">
  <g id="Group_37342" data-name="Group 37342" transform="translate(-754.677 -257.087)">
    <path id="Path_2547" data-name="Path 2547" d="M760.625,268.279a1.059,1.059,0,0,0-.426-.088,1.086,1.086,0,0,0-.437.088,1.142,1.142,0,0,0-.354.24,1.124,1.124,0,0,0-.242.356,1.06,1.06,0,0,0-.088.426,1.085,1.085,0,0,0,.088.437,1.137,1.137,0,0,0,.242.355,1.177,1.177,0,0,0,.354.242,1.085,1.085,0,0,0,.437.086,1.057,1.057,0,0,0,.426-.086,1.179,1.179,0,0,0,.355-.242,1.14,1.14,0,0,0,.242-.355,1.087,1.087,0,0,0,.088-.437,1.062,1.062,0,0,0-.088-.426,1.127,1.127,0,0,0-.242-.356A1.143,1.143,0,0,0,760.625,268.279Z" transform="translate(3.321 8.383)" fill="#fff"/>
    <path id="Path_2548" data-name="Path 2548" d="M759.065,268.279a1.061,1.061,0,0,0-.427-.088,1.086,1.086,0,0,0-.437.088,1.144,1.144,0,0,0-.6.6,1.059,1.059,0,0,0-.086.426,1.085,1.085,0,0,0,.086.437,1.17,1.17,0,0,0,.242.355,1.2,1.2,0,0,0,.354.242,1.084,1.084,0,0,0,.437.086,1.059,1.059,0,0,0,.427-.086,1.187,1.187,0,0,0,.356-.242,1.165,1.165,0,0,0,.24-.355,1.085,1.085,0,0,0,.088-.437,1.06,1.06,0,0,0-.088-.426,1.127,1.127,0,0,0-.6-.6Z" transform="translate(2.145 8.383)" fill="#fff"/>
    <path id="Path_2549" data-name="Path 2549" d="M758.738,274.922a14.237,14.237,0,0,0,3.589.386,18.044,18.044,0,0,0,3.275-.256,8.623,8.623,0,0,0,2.227-.69,3.344,3.344,0,0,0,1.271-1.007,2.074,2.074,0,0,0,.405-1.213.741.741,0,0,0-.032-.2.644.644,0,0,0-.061-.165h10.817V257.087h-1.788v12.946h-8.792a1.577,1.577,0,0,1-.57-.133,7.348,7.348,0,0,1-.685-.318c-.233-.125-.46-.254-.679-.391s-.4-.255-.555-.349l-2.581-1.657-.884,1.441,2.848,1.788a5.235,5.235,0,0,1,1.081.818.992.992,0,0,1,.3.642.958.958,0,0,1-.463.807,3.76,3.76,0,0,1-1.234.519,10.907,10.907,0,0,1-1.774.277q-1,.082-2.081.082a8.987,8.987,0,0,1-4.4-.863,2.935,2.935,0,0,1-1.5-2.746v-1.5h-1.788v1.82a4.941,4.941,0,0,0,.4,1.99,4.019,4.019,0,0,0,1.3,1.6A6.752,6.752,0,0,0,758.738,274.922Z" transform="translate(0)" fill="#fff"/>
    <path id="Path_2550" data-name="Path 2550" d="M771.715,271.165a2.287,2.287,0,0,0,.951.477,5.032,5.032,0,0,0,1.225.139h1.532a10.737,10.737,0,0,0,2.2-.225,12.806,12.806,0,0,0,2.062-.618,3.067,3.067,0,0,0,1.162.684,4.334,4.334,0,0,0,1.172.158h7.629V257.087h-1.788v12.946h-2.582l-.005,0-.005,0H782.59c-.2,0-.388-.005-.567-.014a2.949,2.949,0,0,1-.493-.068,8,8,0,0,0,1.018-.842,6.041,6.041,0,0,0,.8-.951,4.393,4.393,0,0,0,.52-1.044,3.431,3.431,0,0,0,.186-1.12,2.142,2.142,0,0,0-.232-.962,2.446,2.446,0,0,0-.695-.834,3.664,3.664,0,0,0-1.162-.591,5.269,5.269,0,0,0-1.623-.226,5.629,5.629,0,0,0-2.118.4,4.9,4.9,0,0,0-1.667,1.069,1.647,1.647,0,0,0-.24.325q-.118.2-.232.442c-.076.161-.146.326-.211.5s-.119.332-.16.483l2.7,2.992a8.928,8.928,0,0,1-1.492.335,11.547,11.547,0,0,1-1.583.107h-1.172a2.785,2.785,0,0,1-.767-.086.923.923,0,0,1-.456-.284,1.046,1.046,0,0,1-.221-.5,4.135,4.135,0,0,1-.058-.749V257.087h-1.788v11.784a3.815,3.815,0,0,0,.221,1.393A2.249,2.249,0,0,0,771.715,271.165Zm5.733-4.926a3.344,3.344,0,0,1,.53-.462,3.473,3.473,0,0,1,.663-.37,4.088,4.088,0,0,1,.76-.242,3.891,3.891,0,0,1,.823-.088,3.691,3.691,0,0,1,.906.1,2.131,2.131,0,0,1,.637.267,1.171,1.171,0,0,1,.381.386.9.9,0,0,1,.123.453,1.837,1.837,0,0,1-.165.76,2.945,2.945,0,0,1-.456.716,4.186,4.186,0,0,1-.711.648,6.965,6.965,0,0,1-.92.56Z" transform="translate(12.231)" fill="#fff"/>
    <rect id="Rectangle_425" data-name="Rectangle 425" width="1.789" height="14.694" transform="translate(804.754 257.088)" fill="#fff"/>
    <path id="Path_2551" data-name="Path 2551" d="M802.235,267.107a1.165,1.165,0,0,0-.354-.24,1.033,1.033,0,0,0-.427-.088,1.057,1.057,0,0,0-.437.088,1.122,1.122,0,0,0-.355.24,1.137,1.137,0,0,0-.242.354,1.072,1.072,0,0,0-.088.428,1.1,1.1,0,0,0,.088.437,1.137,1.137,0,0,0,.242.354,1.122,1.122,0,0,0,.355.24,1.056,1.056,0,0,0,.437.088,1.032,1.032,0,0,0,.427-.088,1.149,1.149,0,0,0,.6-.595,1.1,1.1,0,0,0,.086-.437,1.073,1.073,0,0,0-.086-.428A1.17,1.17,0,0,0,802.235,267.107Z" transform="translate(34.467 7.317)" fill="#fff"/>
    <path id="Path_2552" data-name="Path 2552" d="M812.643,271.072a2.4,2.4,0,0,0,.509.376,2.694,2.694,0,0,0,.626.247,2.731,2.731,0,0,0,.679.086H816a7.077,7.077,0,0,0,.746-.04,3.408,3.408,0,0,0,.765-.17,2.674,2.674,0,0,0,.7-.36,1.781,1.781,0,0,0,.53-.611,1.681,1.681,0,0,0,.344.472,2.4,2.4,0,0,0,.509.376,2.7,2.7,0,0,0,.627.247,2.733,2.733,0,0,0,.679.086h1.223a10.736,10.736,0,0,0,2.2-.225,12.752,12.752,0,0,0,2.062-.618,3.081,3.081,0,0,0,1.162.684,4.344,4.344,0,0,0,1.172.158h5.358a7.078,7.078,0,0,0,.746-.04,3.41,3.41,0,0,0,.765-.17,2.673,2.673,0,0,0,.695-.36,1.8,1.8,0,0,0,.53-.611,1.646,1.646,0,0,0,.344.472,2.4,2.4,0,0,0,.509.376,2.67,2.67,0,0,0,.627.247,2.732,2.732,0,0,0,.679.086h4.37V257.087h-1.788v12.946h-2.581a2.253,2.253,0,0,1-.92-.163,1.427,1.427,0,0,1-.581-.463,1.846,1.846,0,0,1-.3-.73,4.865,4.865,0,0,1-.088-.956v-4.042H835.26V268.5a2.283,2.283,0,0,1-.125.834,1,1,0,0,1-.344.463,1.211,1.211,0,0,1-.541.195,5.357,5.357,0,0,1-.7.04h-1.583l-.005,0-.005,0h-2.674c-.2,0-.386-.005-.565-.014a2.948,2.948,0,0,1-.493-.068,8.146,8.146,0,0,0,1.018-.842,6.045,6.045,0,0,0,.8-.951,4.393,4.393,0,0,0,.519-1.044,3.472,3.472,0,0,0,.184-1.12,2.164,2.164,0,0,0-.23-.962,2.446,2.446,0,0,0-.695-.834,3.684,3.684,0,0,0-1.162-.591,5.282,5.282,0,0,0-1.625-.226,5.636,5.636,0,0,0-2.118.4,4.9,4.9,0,0,0-1.665,1.069,1.642,1.642,0,0,0-.242.325q-.118.2-.232.442c-.075.161-.146.326-.211.5s-.117.332-.16.483l2.7,2.992a8.87,8.87,0,0,1-1.49.335,11.567,11.567,0,0,1-1.583.107h-1.142a2.252,2.252,0,0,1-.92-.163,1.427,1.427,0,0,1-.581-.463,1.849,1.849,0,0,1-.3-.73,4.866,4.866,0,0,1-.088-.956V257.087h-1.809V268.5a2.286,2.286,0,0,1-.125.834.989.989,0,0,1-.344.463,1.211,1.211,0,0,1-.539.195,5.408,5.408,0,0,1-.7.04h-1.028a2.252,2.252,0,0,1-.919-.163,1.43,1.43,0,0,1-.581-.463,1.85,1.85,0,0,1-.3-.73,4.851,4.851,0,0,1-.088-.956v-4.042h-1.809V268.5a2.286,2.286,0,0,1-.125.834.99.99,0,0,1-.344.463,1.212,1.212,0,0,1-.539.195,5.4,5.4,0,0,1-.7.04h-7.815a1.274,1.274,0,0,1-.879-.349,2.228,2.228,0,0,1-.591-1.018c.014-.13.025-.26.032-.391s.011-.263.011-.4a4.515,4.515,0,0,0-.279-1.625,3.711,3.711,0,0,0-.776-1.255,3.41,3.41,0,0,0-1.188-.807,3.961,3.961,0,0,0-1.511-.283,4.466,4.466,0,0,0-.818.083,3.65,3.65,0,0,0-.884.293,4.539,4.539,0,0,0-.895.57,4.492,4.492,0,0,0-.842.921,7.18,7.18,0,0,0-.725,1.335,10.275,10.275,0,0,0-.556,1.816,5.615,5.615,0,0,0-1.325.725,2.852,2.852,0,0,0-.807.956,4.111,4.111,0,0,0-.407,1.325,12.8,12.8,0,0,0-.112,1.836v2.56h1.769v-2.518a12.371,12.371,0,0,1,.061-1.358,2.754,2.754,0,0,1,.246-.925,1.494,1.494,0,0,1,.509-.586,2.963,2.963,0,0,1,.849-.36,9.707,9.707,0,0,0,1.111.719,7,7,0,0,0,1,.458,5.1,5.1,0,0,0,.92.237,5.868,5.868,0,0,0,.863.067,4.078,4.078,0,0,0,2.006-.447,3.135,3.135,0,0,0,1.244-1.25,2.573,2.573,0,0,0,.863,1.09,1.99,1.99,0,0,0,.728.275,1.242,1.242,0,0,0,.383.053h8.329a7.053,7.053,0,0,0,.746-.04,3.407,3.407,0,0,0,.765-.17,2.671,2.671,0,0,0,.7-.36,1.78,1.78,0,0,0,.53-.611A1.685,1.685,0,0,0,812.643,271.072Zm11.5-4.833a3.325,3.325,0,0,1,.528-.462,3.582,3.582,0,0,1,.663-.37,4.148,4.148,0,0,1,.762-.242,3.88,3.88,0,0,1,.823-.088,3.665,3.665,0,0,1,.9.1,2.121,2.121,0,0,1,.639.267,1.163,1.163,0,0,1,.379.386.9.9,0,0,1,.125.453,1.864,1.864,0,0,1-.165.76,2.954,2.954,0,0,1-.458.716,4.18,4.18,0,0,1-.709.648,6.961,6.961,0,0,1-.92.56Zm-26.694,3.517a2.171,2.171,0,0,1-1.532.514,4.175,4.175,0,0,1-1.481-.293,5.66,5.66,0,0,1-1.481-.848,8.537,8.537,0,0,1,.535-1.585,4.483,4.483,0,0,1,.688-1.084,2.472,2.472,0,0,1,.828-.627,2.281,2.281,0,0,1,.941-.2,2.114,2.114,0,0,1,.879.174,1.77,1.77,0,0,1,.647.493,2.162,2.162,0,0,1,.4.767,3.439,3.439,0,0,1,.133.992A2.223,2.223,0,0,1,797.45,269.756Z" transform="translate(25.669)" fill="#fff"/>
    <path id="Path_2553" data-name="Path 2553" d="M803.438,268.922a1.133,1.133,0,0,0,.6-.595,1.1,1.1,0,0,0,.088-.437,1.075,1.075,0,0,0-.088-.428,1.133,1.133,0,0,0-.6-.595,1.032,1.032,0,0,0-.427-.088,1.058,1.058,0,0,0-.437.088,1.163,1.163,0,0,0-.354.24,1.2,1.2,0,0,0-.242.354,1.078,1.078,0,0,0-.086.428,1.1,1.1,0,0,0,.086.437,1.2,1.2,0,0,0,.242.354,1.163,1.163,0,0,0,.354.24,1.057,1.057,0,0,0,.437.088A1.032,1.032,0,0,0,803.438,268.922Z" transform="translate(35.643 7.317)" fill="#fff"/>
    <path id="Path_2554" data-name="Path 2554" d="M814.624,260.091a1.155,1.155,0,0,0,.356.242,1.085,1.085,0,0,0,.437.086,1.058,1.058,0,0,0,.427-.086,1.166,1.166,0,0,0,.354-.242,1.2,1.2,0,0,0,.242-.355,1.086,1.086,0,0,0,.086-.437,1.059,1.059,0,0,0-.086-.426,1.186,1.186,0,0,0-.242-.356,1.16,1.16,0,0,0-.354-.24,1.059,1.059,0,0,0-.427-.088,1.085,1.085,0,0,0-.437.088,1.128,1.128,0,0,0-.6.6,1.031,1.031,0,0,0-.088.426,1.057,1.057,0,0,0,.088.437A1.164,1.164,0,0,0,814.624,260.091Z" transform="translate(45.008 0.832)" fill="#fff"/>
    <path id="Path_2555" data-name="Path 2555" d="M816.184,260.091a1.172,1.172,0,0,0,.355.242,1.084,1.084,0,0,0,.437.086,1.058,1.058,0,0,0,.427-.086,1.159,1.159,0,0,0,.6-.6,1.084,1.084,0,0,0,.088-.437,1.058,1.058,0,0,0-.088-.426,1.124,1.124,0,0,0-.242-.356,1.14,1.14,0,0,0-.354-.24,1.059,1.059,0,0,0-.427-.088,1.084,1.084,0,0,0-.437.088,1.166,1.166,0,0,0-.355.24,1.125,1.125,0,0,0-.242.356,1.058,1.058,0,0,0-.088.426,1.084,1.084,0,0,0,.088.437A1.138,1.138,0,0,0,816.184,260.091Z" transform="translate(46.184 0.832)" fill="#fff"/>
    <rect id="Rectangle_426" data-name="Rectangle 426" width="1.789" height="14.694" transform="translate(871.879 257.088)" fill="#fff"/>
    <path id="Path_2556" data-name="Path 2556" d="M828,268.232a3.732,3.732,0,0,0,1.332.709,5.757,5.757,0,0,0,1.7.237,5.538,5.538,0,0,0,1.655-.237,3.484,3.484,0,0,0,1.316-.735,3.375,3.375,0,0,0,.869-1.269,4.853,4.853,0,0,0,.314-1.83,4.994,4.994,0,0,0-.3-1.743,4.2,4.2,0,0,0-.842-1.4,3.912,3.912,0,0,0-1.311-.941,4.36,4.36,0,0,0-3.415.005,3.906,3.906,0,0,0-1.332.97,4.481,4.481,0,0,0-.864,1.492,5.674,5.674,0,0,0-.307,1.908,4.066,4.066,0,0,0,.312,1.655A3.227,3.227,0,0,0,828,268.232Zm.783-4.114a2.822,2.822,0,0,1,.5-.9,2.413,2.413,0,0,1,.77-.612,2.166,2.166,0,0,1,1.862-.032,2.227,2.227,0,0,1,.749.567,2.759,2.759,0,0,1,.514.893,3.4,3.4,0,0,1,.191,1.172,2.367,2.367,0,0,1-.2,1.009,1.981,1.981,0,0,1-.523.7,2.089,2.089,0,0,1-.756.405,3.058,3.058,0,0,1-.89.13,3.118,3.118,0,0,1-.92-.135,2.158,2.158,0,0,1-.767-.405,1.958,1.958,0,0,1-.525-.693,2.368,2.368,0,0,1-.195-1A3.288,3.288,0,0,1,828.781,264.118Z" transform="translate(54.456 2.707)" fill="#fff"/>
    <path id="Path_2557" data-name="Path 2557" d="M829.583,260.091a1.153,1.153,0,0,0,.356.242,1.085,1.085,0,0,0,.437.086,1.064,1.064,0,0,0,.427-.086,1.167,1.167,0,0,0,.354-.242,1.2,1.2,0,0,0,.242-.355,1.086,1.086,0,0,0,.086-.437,1.059,1.059,0,0,0-.086-.426,1.187,1.187,0,0,0-.242-.356,1.161,1.161,0,0,0-.354-.24,1.065,1.065,0,0,0-.427-.088,1.085,1.085,0,0,0-.437.088,1.129,1.129,0,0,0-.6.6,1.033,1.033,0,0,0-.088.426,1.06,1.06,0,0,0,.088.437A1.164,1.164,0,0,0,829.583,260.091Z" transform="translate(56.3 0.832)" fill="#fff"/>
    <path id="Path_2558" data-name="Path 2558" d="M828.026,260.091a1.148,1.148,0,0,0,.355.242,1.084,1.084,0,0,0,.437.086,1.058,1.058,0,0,0,.427-.086,1.161,1.161,0,0,0,.6-.6,1.088,1.088,0,0,0,.088-.437,1.062,1.062,0,0,0-.088-.426,1.128,1.128,0,0,0-.242-.356,1.143,1.143,0,0,0-.354-.24,1.059,1.059,0,0,0-.427-.088,1.084,1.084,0,0,0-.437.088,1.143,1.143,0,0,0-.355.24,1.126,1.126,0,0,0-.242.356,1.061,1.061,0,0,0-.088.426,1.087,1.087,0,0,0,.088.437A1.139,1.139,0,0,0,828.026,260.091Z" transform="translate(55.124 0.832)" fill="#fff"/>
    <path id="Path_2559" data-name="Path 2559" d="M835.047,273.192a2.5,2.5,0,0,0,1.207-.965,4.376,4.376,0,0,0,.613-1.729,16.842,16.842,0,0,0,.168-2.59v-7.065h-1.788v6.839q0,1.069-.047,1.836a4.006,4.006,0,0,1-.246,1.258,1.4,1.4,0,0,1-.623.73,2.407,2.407,0,0,1-1.172.237h-.7v1.748h.626A5.439,5.439,0,0,0,835.047,273.192Z" transform="translate(58.72 2.835)" fill="#fff"/>
    <rect id="Rectangle_427" data-name="Rectangle 427" width="1.789" height="14.694" transform="translate(898.635 257.088)" fill="#fff"/>
    <path id="Path_2560" data-name="Path 2560" d="M842.172,258.517a1.12,1.12,0,0,0-.354-.24,1.059,1.059,0,0,0-.427-.088,1.084,1.084,0,0,0-.437.088,1.144,1.144,0,0,0-.6.6,1.059,1.059,0,0,0-.086.426,1.086,1.086,0,0,0,.086.437,1.16,1.16,0,0,0,.6.6,1.083,1.083,0,0,0,.437.086,1.058,1.058,0,0,0,.427-.086,1.125,1.125,0,0,0,.354-.242,1.14,1.14,0,0,0,.242-.355,1.087,1.087,0,0,0,.088-.437,1.061,1.061,0,0,0-.088-.426A1.126,1.126,0,0,0,842.172,258.517Z" transform="translate(64.617 0.832)" fill="#fff"/>
    <path id="Path_2561" data-name="Path 2561" d="M841.569,267.682q0,1.069-.046,1.836a4.048,4.048,0,0,1-.247,1.258,1.4,1.4,0,0,1-.621.73,2.416,2.416,0,0,1-1.172.237h-.7v1.748h.628a5.435,5.435,0,0,0,1.958-.3,2.5,2.5,0,0,0,1.207-.965,4.345,4.345,0,0,0,.613-1.729,16.8,16.8,0,0,0,.17-2.59v-7.065h-1.79Z" transform="translate(63.493 2.835)" fill="#fff"/>
    <path id="Path_2562" data-name="Path 2562" d="M850.856,263.944a4.974,4.974,0,0,0-.667-1.734,3.282,3.282,0,0,0-1.23-1.13,4.43,4.43,0,0,0-3.664-.021,4.069,4.069,0,0,0-1.307,1.013,4.367,4.367,0,0,0-.8,1.441,5.2,5.2,0,0,0-.272,1.655,4.8,4.8,0,0,0,.3,1.788,3.115,3.115,0,0,0,2.057,1.9,5.194,5.194,0,0,0,1.522.216,5.012,5.012,0,0,0,1.506-.195,5.312,5.312,0,0,0,.993-.411v.605a3.432,3.432,0,0,1-.242,1.388,1.842,1.842,0,0,1-.781.86,3.851,3.851,0,0,1-1.409.432,15.974,15.974,0,0,1-2.113.118H844.1v1.748h.884a13.409,13.409,0,0,0,2.673-.235,4.529,4.529,0,0,0,1.9-.828,3.574,3.574,0,0,0,1.132-1.583,7.179,7.179,0,0,0,.376-2.5v-2.315A11.211,11.211,0,0,0,850.856,263.944Zm-1.567,2.776a3.335,3.335,0,0,1-.93.456,4.307,4.307,0,0,1-1.4.212,2.853,2.853,0,0,1-.956-.154,1.97,1.97,0,0,1-1.223-1.2,2.908,2.908,0,0,1-.175-1.058,3.257,3.257,0,0,1,.133-.9,2.678,2.678,0,0,1,.416-.853,2.21,2.21,0,0,1,.741-.634A2.3,2.3,0,0,1,847,262.34a1.934,1.934,0,0,1,1.785.981,3.327,3.327,0,0,1,.391,1.079,7.409,7.409,0,0,1,.117,1.353Z" transform="translate(66.611 2.707)" fill="#fff"/>
    <path id="Path_2563" data-name="Path 2563" d="M760.979,283.519a1.144,1.144,0,0,0-.355-.24,1.059,1.059,0,0,0-.426-.088,1.086,1.086,0,0,0-.437.088,1.142,1.142,0,0,0-.354.24,1.125,1.125,0,0,0-.242.356,1.06,1.06,0,0,0-.088.426,1.085,1.085,0,0,0,.088.437,1.137,1.137,0,0,0,.242.355,1.177,1.177,0,0,0,.354.242,1.084,1.084,0,0,0,.437.086,1.057,1.057,0,0,0,.426-.086,1.179,1.179,0,0,0,.355-.242,1.14,1.14,0,0,0,.242-.355,1.087,1.087,0,0,0,.088-.437,1.062,1.062,0,0,0-.088-.426A1.127,1.127,0,0,0,760.979,283.519Z" transform="translate(3.321 19.706)" fill="#fff"/>
    <path id="Path_2564" data-name="Path 2564" d="M759.422,283.519a1.151,1.151,0,0,0-.356-.24,1.061,1.061,0,0,0-.427-.088,1.086,1.086,0,0,0-.437.088,1.144,1.144,0,0,0-.6.6,1.058,1.058,0,0,0-.086.426,1.084,1.084,0,0,0,.086.437,1.17,1.17,0,0,0,.242.355,1.2,1.2,0,0,0,.354.242,1.083,1.083,0,0,0,.437.086,1.058,1.058,0,0,0,.427-.086,1.187,1.187,0,0,0,.356-.242,1.165,1.165,0,0,0,.24-.355,1.085,1.085,0,0,0,.088-.437,1.06,1.06,0,0,0-.088-.426A1.152,1.152,0,0,0,759.422,283.519Z" transform="translate(2.145 19.706)" fill="#fff"/>
    <path id="Path_2565" data-name="Path 2565" d="M824.383,285.033H821.8l-.005,0-.005,0h-2.675c-.2,0-.386-.005-.565-.014a2.95,2.95,0,0,1-.493-.068,8.144,8.144,0,0,0,1.018-.842,6.049,6.049,0,0,0,.8-.951,4.394,4.394,0,0,0,.519-1.044,3.478,3.478,0,0,0,.184-1.12,2.14,2.14,0,0,0-.23-.962,2.446,2.446,0,0,0-.695-.834,3.682,3.682,0,0,0-1.162-.591,5.283,5.283,0,0,0-1.625-.226,5.637,5.637,0,0,0-2.118.4,4.9,4.9,0,0,0-1.665,1.069,1.647,1.647,0,0,0-.242.325q-.118.2-.232.442c-.074.161-.146.326-.211.5s-.118.332-.158.483l2.7,2.992a8.927,8.927,0,0,1-1.492.335,11.572,11.572,0,0,1-1.583.107H804.5a2.258,2.258,0,0,1-.92-.163,1.428,1.428,0,0,1-.581-.463,1.849,1.849,0,0,1-.3-.73,4.866,4.866,0,0,1-.088-.956V272.087h-1.809V283.5a2.292,2.292,0,0,1-.123.834,1,1,0,0,1-.346.463,1.212,1.212,0,0,1-.539.195,5.381,5.381,0,0,1-.7.04h-7.258a1.267,1.267,0,0,1-.879-.349,2.211,2.211,0,0,1-.591-1.018c.014-.13.023-.26.03-.391s.011-.263.011-.4a4.556,4.556,0,0,0-.277-1.625,3.713,3.713,0,0,0-.776-1.255,3.424,3.424,0,0,0-1.188-.807,3.96,3.96,0,0,0-1.511-.283,4.5,4.5,0,0,0-1.209.176,3.542,3.542,0,0,0-1.239.648,5.223,5.223,0,0,0-1.135,1.29,7.826,7.826,0,0,0-.9,2.1,4.327,4.327,0,0,1-.412,1.013,2.158,2.158,0,0,1-.472.576,1.28,1.28,0,0,1-.5.262,2.049,2.049,0,0,1-.5.061H769.648a1.576,1.576,0,0,1-.57-.133,7.348,7.348,0,0,1-.685-.318c-.233-.125-.46-.254-.679-.391s-.4-.254-.555-.349l-2.581-1.657-.884,1.441,2.848,1.788a5.234,5.234,0,0,1,1.081.818.992.992,0,0,1,.3.642.958.958,0,0,1-.463.807,3.76,3.76,0,0,1-1.234.52,10.913,10.913,0,0,1-1.774.277q-1,.082-2.081.082a8.987,8.987,0,0,1-4.4-.863,2.935,2.935,0,0,1-1.5-2.746v-1.5h-1.788v1.82a4.941,4.941,0,0,0,.4,1.99,4.019,4.019,0,0,0,1.3,1.6,6.753,6.753,0,0,0,2.36,1.063,14.24,14.24,0,0,0,3.589.386,18.041,18.041,0,0,0,3.275-.256,8.622,8.622,0,0,0,2.227-.69,3.344,3.344,0,0,0,1.271-1.007,2.074,2.074,0,0,0,.405-1.213.741.741,0,0,0-.032-.2.644.644,0,0,0-.061-.165h10.91c.254,0,.484-.009.695-.03a2.054,2.054,0,0,0,.6-.149,1.943,1.943,0,0,0,.551-.36,3.481,3.481,0,0,0,.544-.663,10.043,10.043,0,0,0,1.111.72,7.011,7.011,0,0,0,1,.458,5.114,5.114,0,0,0,.92.237,5.871,5.871,0,0,0,.863.067,4.076,4.076,0,0,0,2.006-.447,3.145,3.145,0,0,0,1.244-1.249,2.5,2.5,0,0,0,.879,1.09,2.05,2.05,0,0,0,.707.272,1.215,1.215,0,0,0,.388.056H799.6a7.042,7.042,0,0,0,.746-.04,3.424,3.424,0,0,0,.767-.17,2.693,2.693,0,0,0,.693-.36,1.78,1.78,0,0,0,.53-.611,1.686,1.686,0,0,0,.344.472,2.4,2.4,0,0,0,.509.376,2.735,2.735,0,0,0,1.306.333h7.455a10.742,10.742,0,0,0,2.2-.225,12.754,12.754,0,0,0,2.062-.618,3.093,3.093,0,0,0,1.162.684,4.344,4.344,0,0,0,1.172.158h7.63V272.087h-1.79Zm-36.339-.277a2.171,2.171,0,0,1-1.532.514,4.173,4.173,0,0,1-1.479-.293,5.632,5.632,0,0,1-1.481-.848,8.432,8.432,0,0,1,.535-1.585,4.483,4.483,0,0,1,.688-1.084,2.47,2.47,0,0,1,.828-.626,2.275,2.275,0,0,1,.941-.2,2.125,2.125,0,0,1,.879.174,1.8,1.8,0,0,1,.648.493,2.166,2.166,0,0,1,.4.767,3.5,3.5,0,0,1,.133.992A2.223,2.223,0,0,1,788.043,284.756Zm28.505-.791-2.571-2.725a3.272,3.272,0,0,1,.53-.462,3.51,3.51,0,0,1,.661-.37,4.147,4.147,0,0,1,.762-.242,3.879,3.879,0,0,1,.823-.088,3.667,3.667,0,0,1,.9.1,2.121,2.121,0,0,1,.639.267,1.186,1.186,0,0,1,.381.386.914.914,0,0,1,.123.453,1.836,1.836,0,0,1-.165.76,2.9,2.9,0,0,1-.458.716,4.177,4.177,0,0,1-.709.648A6.944,6.944,0,0,1,816.549,283.964Z" transform="translate(0 11.324)" fill="#fff"/>
    <rect id="Rectangle_428" data-name="Rectangle 428" width="1.789" height="14.694" transform="translate(829.052 283.412)" fill="#fff"/>
    <path id="Path_2566" data-name="Path 2566" d="M808.354,274.607a1.123,1.123,0,0,0,.356-.242,1.141,1.141,0,0,0,.24-.354,1.058,1.058,0,0,0,.088-.426,1.1,1.1,0,0,0-.088-.432,1.13,1.13,0,0,0-.6-.6,1.062,1.062,0,0,0-.427-.088,1.085,1.085,0,0,0-.437.088,1.139,1.139,0,0,0-.355.242,1.155,1.155,0,0,0-.242.36,1.094,1.094,0,0,0-.086.432,1.056,1.056,0,0,0,.086.426,1.172,1.172,0,0,0,.242.354,1.136,1.136,0,0,0,.355.242,1.084,1.084,0,0,0,.437.088A1.061,1.061,0,0,0,808.354,274.607Z" transform="translate(39.355 11.607)" fill="#fff"/>
    <path id="Path_2567" data-name="Path 2567" d="M807.893,275.806a1.163,1.163,0,0,0,.354.24,1.058,1.058,0,0,0,.437.088,1.032,1.032,0,0,0,.427-.088,1.15,1.15,0,0,0,.6-.595,1.1,1.1,0,0,0,.088-.437,1.076,1.076,0,0,0-.088-.428,1.15,1.15,0,0,0-.6-.595,1.031,1.031,0,0,0-.427-.088,1.057,1.057,0,0,0-.437.088,1.162,1.162,0,0,0-.354.24,1.14,1.14,0,0,0-.242.354,1.074,1.074,0,0,0-.088.428,1.1,1.1,0,0,0,.088.437A1.14,1.14,0,0,0,807.893,275.806Z" transform="translate(39.925 12.695)" fill="#fff"/>
    <path id="Path_2568" data-name="Path 2568" d="M807.553,273.992a1.037,1.037,0,0,0-.427-.088,1.055,1.055,0,0,0-.437.088,1.146,1.146,0,0,0-.356.24,1.161,1.161,0,0,0-.24.354,1.044,1.044,0,0,0-.088.428,1.067,1.067,0,0,0,.088.437,1.161,1.161,0,0,0,.24.354,1.147,1.147,0,0,0,.356.24,1.056,1.056,0,0,0,.437.088,1.038,1.038,0,0,0,.427-.088,1.163,1.163,0,0,0,.354-.24,1.2,1.2,0,0,0,.242-.354,1.1,1.1,0,0,0,.086-.437,1.072,1.072,0,0,0-.086-.428,1.2,1.2,0,0,0-.242-.354A1.162,1.162,0,0,0,807.553,273.992Z" transform="translate(38.749 12.695)" fill="#fff"/>
    <path id="Path_2569" data-name="Path 2569" d="M833.928,282.072a1.179,1.179,0,0,0-.354-.242,1.059,1.059,0,0,0-.427-.086,1.086,1.086,0,0,0-.437.086,1.175,1.175,0,0,0-.354.242,1.14,1.14,0,0,0-.242.354,1.068,1.068,0,0,0-.088.426,1.087,1.087,0,0,0,.088.437,1.145,1.145,0,0,0,.6.6,1.057,1.057,0,0,0,.437.088,1.031,1.031,0,0,0,.427-.088,1.142,1.142,0,0,0,.354-.24,1.121,1.121,0,0,0,.242-.356,1.087,1.087,0,0,0,.088-.437,1.068,1.068,0,0,0-.088-.426A1.133,1.133,0,0,0,833.928,282.072Z" transform="translate(58.392 18.614)" fill="#fff"/>
    <path id="Path_2570" data-name="Path 2570" d="M864.273,285.033h-5.7a2.266,2.266,0,0,1-.921-.163,1.44,1.44,0,0,1-.581-.463,1.846,1.846,0,0,1-.3-.73,4.726,4.726,0,0,1-.088-.956v-4.042h-1.811V283.5a2.287,2.287,0,0,1-.123.834,1,1,0,0,1-.344.463,1.219,1.219,0,0,1-.54.195,5.376,5.376,0,0,1-.7.04H844.16a9.443,9.443,0,0,0-.381-2.566,6.013,6.013,0,0,0-1.1-2.118,5.207,5.207,0,0,0-1.881-1.439,6.409,6.409,0,0,0-2.715-.53,7.116,7.116,0,0,0-1.527.154q-.7.155-1.106.288v1.686c.144-.04.314-.084.509-.128s.4-.084.612-.118.43-.063.653-.082.437-.032.642-.032a5.643,5.643,0,0,1,1.743.263,3.651,3.651,0,0,1,1.425.837A4.022,4.022,0,0,1,842,282.76a6.475,6.475,0,0,1,.354,2.273h-20.9c-.016,0-.025.005-.039.005l-.033-.005a2.192,2.192,0,0,1-.911-.163,1.327,1.327,0,0,1-.555-.463,1.855,1.855,0,0,1-.274-.73,5.92,5.92,0,0,1-.072-.956v-4.042h-1.809V283.5a2.291,2.291,0,0,1-.123.834,1,1,0,0,1-.344.463,1.218,1.218,0,0,1-.541.195,5.376,5.376,0,0,1-.7.04h-8.338c-.672,0-1.227-.019-1.662-.061a2.784,2.784,0,0,1-1.039-.267,1.133,1.133,0,0,1-.539-.591,2.829,2.829,0,0,1-.154-1.034v-2.632h-1.79v3.259a4.264,4.264,0,0,0,.207,1.42,2,2,0,0,0,.7.956,3.241,3.241,0,0,0,1.311.535,10.681,10.681,0,0,0,2.041.163h9.778a7.045,7.045,0,0,0,.746-.04,3.422,3.422,0,0,0,.767-.17,2.685,2.685,0,0,0,.693-.36.45.45,0,1,1,.864-.139,2.33,2.33,0,0,0,.484.376,2.44,2.44,0,0,0,.6.247,2.549,2.549,0,0,0,.663.086c.014,0,.023,0,.037,0l.035,0h32.236a7.069,7.069,0,0,0,.746-.04,3.41,3.41,0,0,0,.765-.17,2.674,2.674,0,0,0,.695-.36,1.773,1.773,0,0,0,.528-.611,1.692,1.692,0,0,0,.346.472,2.357,2.357,0,0,0,.509.376,2.666,2.666,0,0,0,.627.247,2.73,2.73,0,0,0,.679.086h7.485V272.087h-1.788Z" transform="translate(36.121 11.324)" fill="#fff"/>
    <rect id="Rectangle_429" data-name="Rectangle 429" width="1.789" height="14.694" transform="translate(905.062 283.412)" fill="#fff"/>
    <path id="Path_2571" data-name="Path 2571" d="M850.189,277.21a3.282,3.282,0,0,0-1.23-1.13,4.43,4.43,0,0,0-3.664-.021,4.069,4.069,0,0,0-1.307,1.013,4.367,4.367,0,0,0-.8,1.441,5.2,5.2,0,0,0-.272,1.655,4.8,4.8,0,0,0,.3,1.788,3.115,3.115,0,0,0,2.057,1.9,5.194,5.194,0,0,0,1.522.216,5.011,5.011,0,0,0,1.506-.195,5.309,5.309,0,0,0,.993-.411v.605a3.432,3.432,0,0,1-.242,1.388,1.841,1.841,0,0,1-.781.86,3.85,3.85,0,0,1-1.409.432,15.974,15.974,0,0,1-2.113.118H844.1v1.748h.884a13.409,13.409,0,0,0,2.673-.235,4.529,4.529,0,0,0,1.9-.828,3.575,3.575,0,0,0,1.132-1.583,7.179,7.179,0,0,0,.376-2.5v-2.315a11.211,11.211,0,0,0-.2-2.209A4.974,4.974,0,0,0,850.189,277.21Zm-.9,4.51a3.335,3.335,0,0,1-.93.456,4.307,4.307,0,0,1-1.4.212,2.853,2.853,0,0,1-.956-.154,1.97,1.97,0,0,1-1.223-1.2,2.908,2.908,0,0,1-.175-1.058,3.257,3.257,0,0,1,.133-.9,2.679,2.679,0,0,1,.416-.853,2.211,2.211,0,0,1,.741-.633A2.3,2.3,0,0,1,847,277.34a1.935,1.935,0,0,1,1.785.981,3.327,3.327,0,0,1,.391,1.079,7.409,7.409,0,0,1,.117,1.353Z" transform="translate(66.611 14.031)" fill="#fff"/>
  </g>
</svg>
