<svg xmlns="http://www.w3.org/2000/svg" width="11.958" height="13.666" viewBox="0 0 11.958 13.666">
  <path id="solid_calendar-alt" data-name="solid calendar-alt" d="M0,12.385a1.282,1.282,0,0,0,1.281,1.281h9.4a1.282,1.282,0,0,0,1.281-1.281V5.125H0ZM8.541,7.153a.321.321,0,0,1,.32-.32H9.929a.321.321,0,0,1,.32.32V8.221a.321.321,0,0,1-.32.32H8.862a.321.321,0,0,1-.32-.32Zm0,3.416a.321.321,0,0,1,.32-.32H9.929a.321.321,0,0,1,.32.32v1.068a.321.321,0,0,1-.32.32H8.862a.321.321,0,0,1-.32-.32ZM5.125,7.153a.321.321,0,0,1,.32-.32H6.513a.321.321,0,0,1,.32.32V8.221a.321.321,0,0,1-.32.32H5.445a.321.321,0,0,1-.32-.32Zm0,3.416a.321.321,0,0,1,.32-.32H6.513a.321.321,0,0,1,.32.32v1.068a.321.321,0,0,1-.32.32H5.445a.321.321,0,0,1-.32-.32ZM1.708,7.153a.321.321,0,0,1,.32-.32H3.1a.321.321,0,0,1,.32.32V8.221a.321.321,0,0,1-.32.32H2.029a.321.321,0,0,1-.32-.32Zm0,3.416a.321.321,0,0,1,.32-.32H3.1a.321.321,0,0,1,.32.32v1.068a.321.321,0,0,1-.32.32H2.029a.321.321,0,0,1-.32-.32Zm8.968-8.862H9.4V.427A.428.428,0,0,0,8.968,0H8.114a.428.428,0,0,0-.427.427V1.708H4.271V.427A.428.428,0,0,0,3.844,0H2.989a.428.428,0,0,0-.427.427V1.708H1.281A1.282,1.282,0,0,0,0,2.989V4.271H11.958V2.989A1.282,1.282,0,0,0,10.677,1.708Z" fill="#fff"/>
</svg>
