<svg xmlns="http://www.w3.org/2000/svg" width="12.146" height="8.097" viewBox="0 0 12.146 8.097">
  <path id="solid_eye" data-name="solid eye" d="M12.073,67.741a6.763,6.763,0,0,0-6-3.741,6.764,6.764,0,0,0-6,3.741.682.682,0,0,0,0,.616,6.763,6.763,0,0,0,6,3.741,6.764,6.764,0,0,0,6-3.741.682.682,0,0,0,0-.616Zm-6,3.344A3.036,3.036,0,1,1,9.11,68.049,3.036,3.036,0,0,1,6.073,71.085Zm0-5.061a2.01,2.01,0,0,0-.534.08,1.009,1.009,0,0,1-1.411,1.411,2.02,2.02,0,1,0,1.944-1.491Z" transform="translate(-0.001 -64)" fill="#fff"/>
</svg>
