<?xml version="1.0" encoding="utf-8"?>
<!-- Generator: Adobe Illustrator 25.1.0, SVG Export Plug-In . SVG Version: 6.00 Build 0)  -->
<svg version="1.1" id="Layer_1" xmlns="http://www.w3.org/2000/svg" xmlns:xlink="http://www.w3.org/1999/xlink" x="0px" y="0px"
	 viewBox="0 0 15.9 15.9" style="enable-background:new 0 0 15.9 15.9;" xml:space="preserve">
<style type="text/css">
	.st0{fill-rule:evenodd;clip-rule:evenodd;fill:#FFFFFF;}
</style>
<g id="Group_37718" transform="translate(-1451.689 -769.607)">
	<path id="Path_270" class="st0" d="M1453.8,769.9c1,0,1.9,0.8,1.9,1.9v0c0,1-0.8,1.9-1.9,1.9s-1.9-0.8-1.9-1.9
		C1452,770.8,1452.8,769.9,1453.8,769.9z"/>
	<path id="Path_271" class="st0" d="M1454.9,785.2h-2.2c-0.3,0-0.5-0.2-0.5-0.5v-9.2c0-0.3,0.2-0.5,0.5-0.5c0,0,0,0,0,0h2.2
		c0.3,0,0.5,0.2,0.5,0.5v9.2C1455.4,785,1455.2,785.2,1454.9,785.2z"/>
	<path id="Path_272" class="st0" d="M1467.3,778.2c0-1.9-1.6-3.5-3.5-3.5c0,0,0,0,0,0h-0.5c-1,0-2,0.5-2.6,1.3
		c-0.1,0.1-0.1,0.2-0.2,0.3h0v-1.1c0-0.1-0.1-0.2-0.2-0.2h-2.7c-0.1,0-0.2,0.1-0.2,0.2v9.8c0,0.1,0.1,0.2,0.2,0.2h2.8
		c0.1,0,0.2-0.1,0.2-0.2v-5.7c0-1,0.8-1.8,1.8-1.8c0.5,0,0.9,0.2,1.3,0.5c0.3,0.3,0.5,0.8,0.5,1.3v5.7c0,0.1,0.1,0.2,0.2,0.2
		c0,0,0,0,0,0h2.8c0.1,0,0.2-0.1,0.2-0.2L1467.3,778.2L1467.3,778.2z"/>
</g>
</svg>
