<?xml version="1.0" encoding="utf-8"?>
<!-- Generator: Adobe Illustrator 25.1.0, SVG Export Plug-In . SVG Version: 6.00 Build 0)  -->
<svg version="1.1" id="Layer_1" xmlns="http://www.w3.org/2000/svg" xmlns:xlink="http://www.w3.org/1999/xlink" x="0px" y="0px"
	 viewBox="0 0 15.9 15.9" style="enable-background:new 0 0 15.9 15.9;" xml:space="preserve">
<style type="text/css">
	.st0{fill-rule:evenodd;clip-rule:evenodd;fill:#FFFFFF;}
</style>
<path id="Path_7" class="st0" d="M11,0H5C2.2,0,0,2.2,0,5v6c0,2.7,2.2,4.9,5,5h6c2.7,0,4.9-2.2,5-5V5C15.9,2.2,13.7,0,11,0z
	 M12.8,3.8c0-0.3-0.3-0.6-0.6-0.6c-0.3,0-0.6,0.3-0.6,0.6s0.3,0.6,0.6,0.6C12.5,4.4,12.8,4.1,12.8,3.8z M8,4C5.8,4.1,4,5.9,4.1,8
	c0,2.1,1.8,3.9,3.9,3.9c1,0,2-0.4,2.8-1.2c1.5-1.5,1.6-4,0-5.5c0,0,0,0,0,0C10,4.4,9,4,8,4L8,4z M8,10.6c-1.4,0-2.6-1.1-2.6-2.6
	c0-1.4,1.1-2.6,2.6-2.6c1.4,0,2.6,1.1,2.6,2.6c0,0.7-0.3,1.4-0.8,1.8C9.3,10.3,8.7,10.6,8,10.6L8,10.6z M14.6,11
	c0,1-0.4,1.9-1.1,2.5c-0.7,0.7-1.6,1.1-2.5,1.1H5c-1,0-1.9-0.4-2.5-1.1c-0.7-0.7-1-1.6-1-2.5V5c0-1,0.4-1.9,1-2.5
	C3.1,1.8,4,1.4,5,1.4h6c0.9,0,1.9,0.4,2.5,1.1C14.2,3.1,14.6,4,14.6,5V11z"/>
</svg>
