<svg id="Icons_Actions_ic-actions-settings" data-name="Icons / Actions / ic-actions-settings" xmlns="http://www.w3.org/2000/svg" width="70" height="70" viewBox="0 0 70 70">
  <rect id="Rectangle_159" data-name="Rectangle 159" width="70" height="70" fill="none"/>
  <g id="ic-actions-settings" transform="translate(5.679 5.709)">
    <path id="Path_37" data-name="Path 37" d="M26.689,6.117l.262-.642a5.833,5.833,0,0,1,10.879.467l.2.671a5.833,5.833,0,0,0,7.817,3.617l.613-.263a5.833,5.833,0,0,1,7.379,8.021l-.321.613a5.833,5.833,0,0,0,2.917,8.05l.642.263a5.833,5.833,0,0,1-.467,10.879l-.671.2a5.833,5.833,0,0,0-3.675,7.817l.262.612A5.833,5.833,0,0,1,44.509,53.8l-.612-.321a5.833,5.833,0,0,0-8.05,2.917l-.263.642a5.833,5.833,0,0,1-10.879-.467l-.2-.671a5.833,5.833,0,0,0-7.817-3.675l-.613.263a5.833,5.833,0,0,1-7.379-8.021l.321-.612A5.833,5.833,0,0,0,6.1,35.809l-.642-.263a5.833,5.833,0,0,1,.467-10.879l.671-.2a5.833,5.833,0,0,0,3.675-7.817l-.262-.613a5.833,5.833,0,0,1,8.021-7.321l.612.321a5.833,5.833,0,0,0,8.05-2.917Z" transform="translate(-1.947 -1.967)" fill="none" stroke="#b72a14" stroke-linecap="round" stroke-linejoin="bevel" stroke-width="5" fill-rule="evenodd"/>
    <circle id="Ellipse_16" data-name="Ellipse 16" cx="11.404" cy="11.404" r="11.404" transform="translate(17.916 17.858)" fill="none" stroke="#b72a14" stroke-linecap="round" stroke-linejoin="bevel" stroke-width="5"/>
  </g>
</svg>
