<?xml version="1.0" encoding="utf-8"?>
<!-- Generator: Adobe Illustrator 25.1.0, SVG Export Plug-In . SVG Version: 6.00 Build 0)  -->
<svg version="1.1" id="Layer_1" xmlns="http://www.w3.org/2000/svg" xmlns:xlink="http://www.w3.org/1999/xlink" x="0px" y="0px"
	 viewBox="0 0 15.9 15.9" style="enable-background:new 0 0 15.9 15.9;" xml:space="preserve">
<style type="text/css">
	.st0{fill-rule:evenodd;clip-rule:evenodd;fill:#FFFFFF;}
</style>
<path id="Path_8" class="st0" d="M0.1,13c4.3,2.7,10,1.4,12.7-2.9c0.9-1.5,1.4-3.2,1.4-4.9V4.8c0.6-0.5,1.2-1,1.6-1.7
	c-0.6,0.2-1.2,0.4-1.8,0.5l0,0c0.7-0.4,1.2-1.1,1.4-1.8c-0.5,0.3-1,0.5-1.6,0.7c-0.2,0.1-0.3,0.1-0.5,0.2c-0.6-0.7-1.5-1-2.4-1
	C9.2,1.6,7.8,3,7.8,4.8c0,0.2,0,0.5,0.1,0.7c-2.6-0.2-5-1.4-6.7-3.4c0,0-1.5,2.1,0.9,4.3c-0.5,0-1-0.2-1.4-0.4c-0.1,1.6,1,3,2.6,3.2
	c-0.5,0.1-1,0.2-1.4,0.1c0.4,1.3,1.6,2.2,3,2.3C3.5,12.7,1.8,13.2,0.1,13L0.1,13z"/>
</svg>
