<svg xmlns="http://www.w3.org/2000/svg" xmlns:xlink="http://www.w3.org/1999/xlink" width="1920" height="429" viewBox="0 0 1920 429">
  <defs>
    <clipPath id="clip-path">
      <rect id="Rectangle_468" data-name="Rectangle 468" width="1920" height="429" transform="translate(0 4109)" fill="#f9f9f9"/>
    </clipPath>
    <linearGradient id="linear-gradient" x1="1.098" y1="1.919" x2="0.518" y2="0.142" gradientUnits="objectBoundingBox">
      <stop offset="0" stop-color="#fff" stop-opacity="0.188"/>
      <stop offset="1" stop-opacity="0"/>
    </linearGradient>
    <linearGradient id="linear-gradient-2" x1="0.23" y1="0.532" x2="0.806" y2="1.421" xlink:href="#linear-gradient"/>
  </defs>
  <g id="Mask_Group_3" data-name="Mask Group 3" transform="translate(0 -4109)" clip-path="url(#clip-path)">
    <g id="Group_37378" data-name="Group 37378" transform="translate(856.768 4018.594)">
      <path id="Path_2574" data-name="Path 2574" d="M546.625,90.406c.418.3.836.6,1.254.9-2.451,11.961-8.338,21.135-12.781,30.776-15.068,32.711-36.581,58.175-55.437,86.754-3.378,5.132-27.079,35.212-26.1,38.155q18.8-5.485,37.622-10.969Q539.96,220.357,588.74,204.7c8.657-2.115,45.779-12.158,48.239.91,3.181,16.872-34.654,49.026-37.261,66.406q13.5,8.1,27.005,16.2c.5,4.042-8.215,22.455-10.625,25.562-5.288.664-13.822-7.477-18.356-9.723-3.779-1.861-12.084-4.509-13.5-8.633-3.689-10.732,31.531-52.526,36-61.2,1.008-1.951,1.3-3.943,0-5.944-8.51-13.019-100.47,18.422-103.675,23.045-3.517,5.058-3.394,13.863-4.5,21.053-5.55,36.171,15.831,68.767,51.838,66.595,38.073-2.279,62.553-13.9,88.025-28.612q10.158-6.026,20.332-12.06c3.771-3.033-2.771-29.186-3.779-36.187-4.878-33.933-13.609-69.12-22.857-100.248l-3.066-12.781c-.336-4.976,6.214-24.628,9.543-25.382.18.18.361.361.541.549A829.5,829.5,0,0,1,677.3,233.671q4.587,26.107,9.182,52.207c.115.057.238.123.361.18q6.112-4.771,12.232-9.543,6.665-6.837,13.322-13.683c1.361-4.993-6.714-20.824-8.461-24.833-6.8-15.667-9.813-33.342-16.733-49.862-1.722-4.1-8.083-9.977-8.469-13.5-.68-6.329,4.583-20.881,7.747-25.013,2.287-.09,25.423,31.965,25.734,37.614-.6.484-1.2.967-1.8,1.443-1.8-.894-3.6-1.8-5.4-2.7-.418.18-.844.361-1.263.533,1.4,24.734,22.849,39.729,18.184,71.284-2.4,16.257-8.42,30.481-18.545,39.057q-6.382,6.112-12.773,12.24,5.214,36.081,10.436,72.178c6.944.82,28.473-21.168,33.842-25.734,7.641-6.518,37.95-37.335,39.417-46.624q-1.451-7.649-2.878-15.3c-5.386-24.415-11.888-47.271-21.061-68.037l-.541-1.8c-6.977-15.8-11.51-23.98-7.206-45.172.623-3.042-.041-6.624,2.705-7.026,6.641,5.321,10.289,17.79,14.035,25.923,8.764,19.028,18.34,39.155,22.5,63q4.6,31.863,9.19,63.717c12.306,41.836,51.428,44.73,92.87,28.44,12.584-4.944,29.571-8.584,39.057-17.1q-8.448-6.112-16.913-12.24c-16.954-15.757-30.94-50.5-15.839-76.859,15.585-27.194,61.348-40.459,92.149-17.815,4.386,3.23,11.018,6.452,12.429,12.42l-.361.721c-.492.107-19.479-6.665-25.382-7.559-18.34-2.787-68.923,14.618-71.276,23.578-1.664,6.337,9.485,25.915,12.24,29.694C919.852,301,942.872,319.326,968.7,311.8q16.921-8.461,33.834-16.929c4.747-2.656,33.678-20.209,36.72-18,1,2.607-2.533,6.977-3.591,9.9q-2.619,7.649-5.222,15.3-18.716,10-37.441,19.979-30.239,16.294-60.479,32.572c-30.867,15.429-55.658,32.342-98.273,36.9-9.108.976-17.167-3.911-23.578-5.395-4.591,4.419-4.5,14.593-5.222,21.775-4.132,40.86,37.86,56.429,78.294,49.5,31.235-5.353,54.682-18.618,79.556-29.874q17.635-8.547,35.285-17.1c10.649-6.485,40.131-23.267,56.88-17.462,3.386,1.181,8.215,5.558,7.731,10.436-1.23,12.568-40.811,81.753-48.23,86.582-.484-.3-.967-.6-1.443-.9.73-10.846,17.61-37.778,23.217-46.8,2.615-4.206,10.4-11.092,9.715-16.921-13.56-11.174-51.5,12.043-60.479,17.454q-13.4,6.665-26.817,13.322c-29.383,16.487-87.172,46.386-131.754,27-24.324-10.584-37.187-36.351-31.137-71.456q3.775-14.757,7.559-29.514c-.3-1.91-14.6-19.069-17.274-26.1-3.2-8.387-3.911-18.971-5.4-28.981l-1.623-15.47c-.115-.123-.238-.238-.361-.369h-.361c-.18.066-.361.131-.533.189q-1.894,12.236-3.779,24.472c-6.993,17.52-36.573,47.091-50.944,58.864q-9.629,7.465-19.258,14.937,4.144,32.4,8.28,64.8c.361.18.721.353,1.082.541q4.944-8.375,9.9-16.741,2.25-5.5,4.5-10.986c1.558-1.845,3.812.057,5.763-1.074,7.9-4.591,29.538-32.359,44.279-14.585,11.707,14.126,11.8,47.78,2.336,64.078-1.386,2.386-2.648,5.944-5.575,6.665-11.732,2.869-35.113-13.962-41.221-18.9q-3.5-3.333-7.026-6.657c-4.025,4.271-10.8,15.208-11.691,21.594q1.341,10.256,2.7,20.512c4.034,26.005,4.5,56.125,17.1,73.8,5.345,7.51,13.511,12.338,24.652,14.044,35.794,5.46,40.45-29.571,57.421-44.64,2.041-1.812,4.8-4.2,7.739-2.517,1.672,4.558-1.435,9.444,1.082,14.035,21.053,38.442,90.353-1.91,110.873-15.847-.057-.3-.123-.59-.18-.893q-28.973-4.489-57.954-9c-1.558,1.566-3.123,3.123-4.681,4.681-4.214,3.009-10.838.172-16.2-.541-6.78-.9-33.31-1.066-35.277-4.312.09-6.067,5.927-21.889,10.436-24.841,20.856-13.65,80.122,2.082,104.036,5.575l40.319,3.419c11.928,1.738,61.536-3.484,65.693,1.632q-6.026,11.953-12.06,23.931c-4.362,3.411-26.808,1.394-34.375,2.7a154.651,154.651,0,0,0-28.8,7.92c-28.792,10.8-92.509,63.586-128.516,49.321a40.23,40.23,0,0,1-18.356-15.487q-2.607-5.3-5.222-10.617c-6.755,3.124-9.879,16.561-13.675,22.857a54.847,54.847,0,0,1-16.2,16.388c-9.576,6.059-24.66,8.854-37.622,4.853-32.957-10.149-35.966-53.551-41.213-91.255q-1.808-14.474-3.607-28.981c-.115-.115-.238-.238-.361-.352q-3.775,2.792-7.551,5.575c-8.953,5.641-18,10.486-30.784,12.428-9.723,1.459-19.676-1.041-27-3.058q-4.685-1.906-9.362-3.788-4.4,3.062-8.821,6.124c-10.174,5.878-30.6,14.609-45.353,6.477-11.027-6.075-18.167-14.413-22.5-27.186-1.427-4.206-1.385-10.059-3.952-13.134-3.443.23-5.337,2.484-7.026,4.5q-9.715,13.134-19.438,26.284c-9.444,11.445-22.906,19.52-34.917,28.432-2.082,1.541-8.477,2.869-7.378,5.763,33.072,6.444,69.3,5.3,104.4,8.461,9.92.885,46.615-3.517,53.092.352,1.238,3.542-10.51,23.045-13.134,26.284-10.576,1-22.865-.623-34.023,1.082-25.144,3.837-54.994,18.258-74.694,29.333-15.282,8.6-48.034,29.415-71.637,25.029-18.364-3.419-31.153-19.135-37.441-34.564-2.14-5.263-9.166-28.145-14.577-27.727-8.51.672-14.331,7.526-19.438,11.879-8.026,6.837-15.478,17.446-20.34,27.185-11.182,22.357-10.625,61.266-33.482,71.637-8.124,3.681-15.749-2.8-20.34-6.124-20.283-14.667-26.841-46.189-30.776-77.039q-1.353-12.937-2.7-25.915c-.18-.057-.361-.123-.541-.18q-10.9,6.936-21.783,13.863l-.9-.721a8.9,8.9,0,0,1,2.886-7.018c4.706-4.025,52.444-33.465,56.158-32.949.18.188.353.369.533.549.951,6.28-25.882,18.832-31.137,22.865q1.709,8.8,3.419,17.626c4.484,29.866,8.059,57.872,29.7,70.563,2.664,1.566,7.337,3.738,11.519,1.8,18.676-8.633,22.791-46.7,31.137-66.955,6.493-15.749,15.569-28.628,27.718-38.7,5.108-4.23,10.8-10.338,18.545-11.7,9.313-1.64,23.373,37.671,28.612,44.992,23.48,32.826,61.241,13.1,89.46.721q10.527-5.4,21.061-10.789l-.18-.549-98.642-10.8L416.486,587c-2.968-6.6,5.911-24.923,9.9-27.349,13.79-8.4,30.391-13.831,45.714-20.34,20.717-8.8,39.368-22.553,52.92-38.7,5.108-6.083,19.061-33.539,29.342-30.252q1.34,6.665,2.7,13.322c5.263,17.02,16.79,29.9,39.237,29.711,5.944-.066,14.052-1.017,16.561-4.689.361-4.952-3.066-11.74-2.337-18.717,2.049-19.8,17.241-66.029,36.892-63,17.159,2.648,17.757,36.753,13.683,53.822q-3.148,11.436-6.3,22.865c11.592,5.8,42.565-7.772,45-13.322.943-2.132-7.575-69.415-9.174-72.358-8.452-.5-15.544,7.846-28.079,5.575-20.783-3.755-24.857-33.359-20.881-58.314q2.152-11.609,4.32-23.217c-.3-.18-.6-.361-.9-.541-32.941,17.634-80.155,40.795-119.875,13.134a50.655,50.655,0,0,1-18.536-23.939c-6.173-16.831-6.288-39.245-2.525-58.675q1.98-8.375,3.96-16.741c-.885-.607-59.9,16.757-65.332,19.807-.541.484-1.082.951-1.623,1.435q4.316,30.682,8.641,61.381c2.705,21.193,9.379,64.34,21.422,75.768,6.329,6.026,17.052,9.9,27.718,11.346,18.692,2.558,36.6-7.206,32.572,19.979-1.582,10.74-3.115,21.422-7.92,29.342-12.388,20.455-50.977,40.721-78.835,45.9-8.124,1.5-17.889.156-24.48-1.992q-3.861-1.34-7.739-2.7-6.751,4.243-13.5,8.461c-7.387,4.812-16.437,8.526-25.193,11.7q-10.256,2.521-20.52,5.034c-5.042.369-10.076.721-15.118,1.09-1.041,8.9,7.854,26.03,1.615,36.359-14.413,5.1-36.1-23.98-40.311-33.843-1.189-2.771-1.123-9.83-3.607-11.338-5.05-3.074-18.594,2.131-22.5,3.96-38.581,18.118-58.642,65.193-83.516,97.559-6.411,8.346-23.865,33.916-38.7,31.5-20.069-3.279-35.5-40.975-31.317-68.037q2.164-11.252,4.32-22.5c-.18-.18-.361-.361-.541-.549-10.83-.967-21.275,2.624-32.039-1.615-27.021-10.641-34.752-52.6-29.694-91.435q2.164-17.364,4.32-34.744c-2.525-2.509-5.042-5.042-7.559-7.551-3.878-5.157-6.263-13.675-7.387-21.242-3.271-22.012,26.038-91.968,34.925-93.059.18.18.353.361.533.541-.639,10.461-7.182,19.036-10.789,27.005-5.042,11.109-10.33,23.308-12.42,36.54-1.73,10.879,7.813,36.507,17.454,29.333,5.542-4.116,5.239-14.29,9.715-19.438.3.057.607.115.9.172,4.394,5.64-7.173,35.129-10.076,39.245q-4.685,4.673-9.362,9.354Q70.9,458.672,69.641,469.3c-4.255,31.736.41,66.135,24.841,75.416,36.671,13.913,87.91-32.219,104.216-51.124,4.862-5.64,21.365-18.774,19.979-28.792-.353-2.5-1.213-9.248-3.238-10.092l-16.38,4.329c-19,5.411-37.605,1.582-40.319-16.741-3.173-21.365,14.97-53.4,35.457-46.435,15.249,5.165,19.127,18.708,29.342,28.62,4.616-.287,19.438-8.362,19.8-11.879-.156,1.55-1.287-5.321-4.271-10.4-3.435-5.837-8.682-10.641-12.158-16.429a303.06,303.06,0,0,1-19.684-39.466s.312-17.438,3.886-25.685c.361-.131.721-.238,1.082-.369,7.518,9.092,20.365,19.184,24.3,30.957-.238.3-.475.607-.721.91q-3.861-1.267-7.739-2.525l-.361.361c3.894,15.241,19.717,22.791,23.578,39.237,4.222,17.921-.41,39.819-9.174,50.223q-6.3,4.857-12.6,9.723-1.98,10.158-3.96,20.332c-3.927,15.757-8.813,28.218-17.282,39.057-14.347,18.381-34.818,37.155-54.174,50.4q-12.334,7.28-24.66,14.576c-6.485,11.166-5.722,46.673.18,56.519,11.838,19.758,32.3,5.673,41.934-5.395,16.118-18.512,30.891-39.122,45.181-59.4,9.666-13.724,19.4-29.21,32.039-39.958a101.951,101.951,0,0,1,29.875-18q7.563-1.439,15.126-2.869c1.017-1.681,2.041-3.361,3.058-5.042.418-.066.844-.123,1.263-.18,8.37,3.7,11.068,8.747,18.462,10.51,46.96,11.24,79.991-11.232,79.991-11.232s-4.665-14.429-1.689-27.907c4.771-21.627,19.438-47.984,31.211-62.446,3-3.7,14.675-12.01,16.019-15.126q-8.288-54-16.56-108c-.361-.066-.721-.115-1.082-.172q-21.865,28.075-43.738,56.15-5.312,7.108-10.617,14.224,1.98,14.941,3.96,29.874c3.542,24.5,10.068,105.135-4.32,119.342-2.755,0-3.525-25.562-2.878-31.145.713-6.141-.557-13.658-1.443-19.618-2.951-19.9-3.984-40.278-6.837-58.495-.992-6.321.312-14.035-2.705-18.725l-1.8-.533c-1.918.738-17.093,20.578-17.274,23.218q4.858,8.546,9.723,17.1c9.846,26.054-.951,53.789-18,63.889-5.821,3.46-22.586,14.281-30.957,7.559-11.814-9.477,1.427-56.3,5.583-65.873,1.09-2.541,8.887-15.4,8.452-16.921-1.722-6.059-35.1-38.376-41.573-44.107q-27.448-28.6-54.9-57.224c-.238-.066-.475-.131-.713-.189q-37.987-3.677-75.957-7.37l-34.023-7.206-.541.361q2.607,23.476,5.222,46.984,4.5,44.9,9,89.82c2.23,15.995,4.845,37.7,2.878,54.346-2.033,17.257-.049,51.961-10.076,60.126-.426-.131-.844-.246-1.263-.361.476-8.944-.943-49.181-2.886-61.922q-9.887-96.559-19.8-193.135c-.328-1.017-23.865-12.552-26.817-14.765-20.242-15.159-31.473-37.384-44.992-59.388-2.517-4.1-9.223-11.24-8.821-16.561.18-.188.353-.361.533-.541H7.54Q14.832,202,22.124,210.281c7.247,8.387,47.853,42.828,59.938,41.934.18-.172.361-.353.541-.533q-3.247-35.736-6.485-71.456-3.148-13.33-6.3-26.644l9-26.636c.721.057,1.435.115,2.156.18,4.3,6.3,28.112,64.545,25.382,71.1-.426.057-.844.115-1.263.18q-4.685-4.858-9.362-9.723c-4.747,8.362-.82,25.89.361,34.2l4.5,34.728c3.935,5.78,70.382,18.29,83.7,16.749.18-.18.361-.369.541-.541v-.361Q161.7,244.3,138.581,215.143q-6.3-5.669-12.6-11.346c-2.8-5-4.124-23.463-1.984-28.792,3.361-1.664,47.9,33.129,53.1,38.876,1.172,1.3,1.533,1.656.721,3.238l-15.3-2.336-.361.361c1.5,6.075,50.4,58.995,55.978,61.012l15.118.541c15.978,2.279,35.728,1.017,52.559-.894,12.15-1.394,48.5-.557,55.256-5.222q-1.98-15.569-3.96-31.137l-7.92-68.939q-2.521-9.985-5.042-19.979c.525-3.779,7.149-23.75,9.362-25.382,2.517.976,27.776,58.88,24.66,63.9l-.721.361q-4.944-4.23-9.9-8.452l-.18.172-.18.18c-.475,1.746-.959,3.484-1.435,5.214q3.6,24.214,7.2,48.427c1.123,8.756,1.082,27.317,5.042,33.113,8.756.287,58.962-9.034,63.537-12.592q-1.623-11.781-3.238-23.578-3.062-27.177-6.124-54.363-3.148-12.519-6.3-25.021,4.316-12.691,8.641-25.374l1.254-.369c3.361,2.214,27.046,57.773,24.48,63.184-.361.057-.721.115-1.082.18q-5.03-4.587-10.076-9.174c-.18.172-.361.352-.541.533-1.664,6.395,5.9,59.462,8.28,63.176.361-.066.721-.115,1.082-.172,27.03-32.875,50.575-68.915,75.416-103.856Zm101.159,1.443h.894c.238.3.476.6.721.894q-2.607,4.857-5.222,9.723-46.337,25.566-92.7,51.116c-5.46,2.935-26.185,18.241-30.6,15.839-1.648-7.526,22.389-19.553,28.44-23.037q30.325-16.921,60.659-33.842C622.3,105.6,637.2,100.744,647.784,91.849Zm-223.2,4.493c.656.3,1.32.607,1.984.9V97.6l-.18.541c-.967,1.5-1.927,2.992-2.878,4.5q-20.254,9.272-40.5,18.544-13.589,7.993-27.185,16.011c-.6-.541-1.2-1.074-1.8-1.615C353.351,125.749,414.034,103.433,424.586,96.342Zm88.377,2.878c.721.3,1.435.607,2.156.9-.057,1.32-.115,2.64-.172,3.968l-.189.353c-.3.418-.6.844-.894,1.263q-8.645,3.05-17.282,6.116c-16.987,8.862-33.875,18.061-50.034,27.366-.3.172-.607.353-.9.533h-.721c-.418-.3-.844-.6-1.254-.9C442.573,129.422,501.633,104.261,512.963,99.219Zm-198.538,5.042,1.8.721c-.533,7.346-26.079,15.536-33.113,18.544-29.366,12.535-59.454,24.341-86.582,39.77-4.648,2.656-23.718,10.092-24.119,14.4l5.042,2.164c2,5.763-5.845,6.4-8.28,3.058-2.041-2.8-.607-8.3.894-10.256,6.288-8.157,31.17-18.463,42.123-22.5q25.738-12.236,51.485-24.472Q289.048,114.968,314.425,104.261Zm583.184.361c.418.189.836.361,1.254.541-1.377,5.231-8.28,16.741-2.156,21.963,1.2-.418,2.4-.844,3.6-1.262l.9,1.082c1.672,7.51-7.78,9.453-10.617,3.591C886.739,122.6,894.109,108.729,897.61,104.622Zm-714.93,5.4c4.714.09,11.789,9.592,6.477,11.338-2.328.762-4.55-4.468-7.92-4.321-4.886,5.173-1.5,25.316-5.583,32.58-.361.057-.721.115-1.074.18-.123-.123-.246-.238-.361-.361-3.419-4.747-3.943-11.551-7.92-15.659-3.755-3.87-22.094-.762-14.765-12.781,7.116-11.65,19.955,11.6,22.865,16.2.238.066.475.115.713.18.18-.18.361-.361.541-.533C175.6,126.068,175.784,114.312,182.679,110.025Zm555.63,0c3.779.18,7.542,3.14,9.19,5.575-.664,1.509-1.32,3-1.984,4.5-3.23.59-4.755-3.238-7.559-2.517-5.075,1.3-3.673,26.726-7.559,32.039h-1.443c-3.468-4.55-4.361-13.953-9.362-16.921-7.542,2.082-19.782-8.362-10.977-15.659,10.264-1.631,16.323,12.847,20.16,19.258.3-.172.6-.361.9-.541C733.177,124.544,729.217,115.23,738.309,110.025Zm252.712,2.7c.9.3,1.8.607,2.705.9.779,2.025.6,5.034-.9,6.3q-24.927,8.559-49.862,17.1-29.145,12.322-58.314,24.66c-21.094,9.133-42.287,18.151-61.2,29.883-6.862,4.255-30.768,14.765-32.391,21.947,2.377,3.861,6.936,4.362,10.436,7.034q-.812,2.693-1.623,5.395c-3.4.5-6.616-1.935-8.813-3.427-19.873-13.4,29.784-36.687,37.073-40.844C877.663,153.369,934.551,133.34,991.021,112.722ZM102.041,121s10.313,3.328,16.569,10.527c7.132,8.231,10.051,20.979,5.206,30.153-1.828-.828-.59-2.164-.353-4.148,2.419-20.783-24.169-31.317-24.169-31.317Zm709.888.189c9.076.139,33.121-1.976,35.818,4.845,1.476,3.722-1.615,6.9-2.517,9-8.731,20.4-20.947,25.333-41.4,34.031-3.583,1.517-9.969,6.665-14.035,5.567-.18-.172-.361-.353-.541-.533,2.238-8.272,24.292-16.577,29.694-23.406l-.533-1.435c-10.248-2.6-22.89,1.558-32.219.713-.361-.3-.721-.59-1.082-.894-1.008-7.215,7.8-21.988,12.6-24.833C801.46,122,807.314,122.756,811.929,121.191ZM290.88,152.336s-.18,3.468-2.009,5.026h-.541s-2.591-2.992-5.214-3.238c-4.28,3.025-3.132,13.4-3.4,21.914a52.1,52.1,0,0,1-2.181,13.191h-1.263s-3.656-14.9-9.535-18.372c-9.494,3.837-21.545-9.576-11.346-15.29,6.936-3.894,17.093,12.888,19.438,16.561.246-.066.484-.123.721-.189.123-.123.246-.23.361-.361-.1-12.3,3.517-23.34,7.747-24.972C286.805,145.4,290.88,152.336,290.88,152.336ZM594.323,155.2c4.976.139,14.978,9.723,6.477,11.707-1.648-1.41-3.976-3.738-6.477-3.607-7.739,4.353-1.869,30.071-7.559,32.941-2.837,1.426-8.3-15.118-11.527-17.634-7.567,4.534-19.086-6.493-9.9-12.248,10.732-6.7,15.487,14.716,20.16,15.314C587.272,170.7,586.174,159.763,594.323,155.2Zm411.283,3.247c5.116.082,10.133,8.707,4.32,11.519-1.385-1.025-2.763-2.033-4.14-3.058-.361.057-.721.123-1.082.172-5.009,6.649-.557,30.588-8.821,33.31-.353-.066-.713-.131-1.074-.189l-6.124-15.3c-1.492-2.4-25.661-9.4-12.24-18.545,8.649-5.886,16.667,17.233,19.438,21.242h.541l.18-.18C998.53,175.676,996.735,163.075,1005.605,158.443Zm-75.777,2.517H930.9c.189.549.369,1.082.549,1.623-3.164,5.026-14.281,27.366-2.886,31.49,1.254-1.394,2.214-3.484,4.32-2.509,2.337,6.755-5.075,13.847-9.9,7.911C913.645,187.99,923.016,168.847,929.829,160.96Zm-879.265,13.5c.3.066.6.115.894.172-.008,3.73-12.117,21.488-3.238,24.128.844-.967,1.681-1.927,2.525-2.878.353.18.713.353,1.074.533.754,4.05-2.7,8.912-6.837,9C35.159,198.607,46.457,179.874,50.564,174.463Zm475,8.28,1.082.352c-.549,7.149-13.625,15.839-4.681,27.727,2.312.049,2.91-2.8,4.14-4.321h.721c.238.172.475.353.721.533,1.361,4.591-2.968,10.3-7.206,10.805C508.29,210.158,519.694,187.965,525.564,182.743Zm-315.527,5.575c2.484,1.812-9.731,22.734,1.254,29.342,1.82-1.41,1.623-7.223,4.5-5.763,1.271,6.116-4.4,15.306-9,9.9C199.822,213.593,204.757,195.68,210.037,188.318ZM881.41,193.9a11.814,11.814,0,0,1,7.378,5.042c-.09,2.5-1.631,4.911-3.779,5.394-1.369-1.238-2.632-2.861-4.862-2.7-8.592,5.3,1.525,26.612-6.657,32.941l-.721-.361c-2.443-5.345-4.73-13.134-9.182-16.56-11.74,3.509-19.823-14.8-9.174-16.741,8.666,4.624,12.83,10.42,17.635,18.905h.361C876.975,214.9,869.448,199.541,881.41,193.9Zm-485.625,8.28c5.083.73,7.378,5.968,4.681,10.617h-.9c-1.672-1.353-2.656-3.689-5.583-3.238-7.165,4.05-2.181,32.564-8.633,32.588q-4.144-8.19-8.28-16.38c-.3-.066-.6-.131-.9-.189-.541.721-1.082,1.435-1.615,2.164-5.108-.451-16.249-11.912-7.739-15.847,8.8-4.066,15.6,13.683,18,18.905.3.057.6.115.9.172.18-.172.361-.361.541-.533C386.218,218.7,386.923,205.764,395.785,202.181Zm-130.672,4.14c7.28.082,25.948-.541,28.259,5.042,1.754,4.23-1.64,8.879-2.705,11.338-8.485,19.668-28.21,28.391-50.395,34.2-.3-.476-.6-.959-.894-1.435,8.993-9.125,23.168-13.494,31.85-22.857l-.18-.549c-.18-.172-.361-.353-.541-.533q-11.6-.64-23.218-1.263c-2.968.533-6.7,2.386-9.9,1.263-.18-.3-.361-.607-.541-.91,1.8-6.3,8.01-19.717,13.683-22.135Q257.816,207.4,265.113,206.321ZM125.439,221.8c.238.057.475.123.721.189.2,6.928-10.117,13.79-2.525,22.5h.721q1.254-1.537,2.525-3.066c.476.246.959.476,1.435.73,1.2,4.468-3.247,12.592-7.378,8.272C113.527,242.672,120.315,226.587,125.439,221.8Zm723.571,2.7,2.345.721c.508,3.058-2.025,5.255-3.066,7.92-6.026,15.38-18.192,34.228-20.16,50.755-1.271,10.674,6.509,36.089,17.462,31.686,5.788-2.337,3.123-15.806,8.461-19.086.361.123.721.238,1.082.361,4.755,7.551-11.133,64.758-31.145,39.778-22.332-27.874,3.607-75.547,16.019-95.928C843.329,235.261,844.034,228.235,849.01,224.5Zm-531.158,6.665c.418.066.836.115,1.254.172l.18.189C319,233.9,303.841,254.6,315.327,257.8c.844-1.32,1.681-2.64,2.525-3.968h1.254c.123.246.246.484.361.721-.131,4.419-2.23,8.362-5.222,10.092C299.521,261.34,313.409,235.507,317.852,231.162ZM590,240.156l1.8.721a5.027,5.027,0,0,1-1.443,4.862q-31.678,17.278-63.356,34.564l-.9-.9C525.08,270.842,580.533,246.337,590,240.156ZM475.7,283c.426.361.844.713,1.263,1.082.844,6.116-12.929,19.684-3.779,28.792,2.566,2.558,3.124-1.058,4.32-2.878h1.254c1.484,3.8-1.14,8.813-2.878,10.8C458.592,323.147,472.308,287.476,475.7,283Zm-70.013,1.435q-21.877,4.587-43.738,9.182,2.693,20.242,5.394,40.5c.123.115.246.246.361.353,3.894-.951,37.548-43.8,39.065-49.313ZM721.4,287.861c13.675,2.222,24.2,17.594,19.618,34.728-.68,2.55-.393,5.55-2.517,6.665-.189-.18-.361-.353-.541-.541.894-18.766.664-23.75-12.6-31.678-1.861-1.107-5-2.009-5.583-4.312C719.182,290.354,720.593,288.9,721.4,287.861Zm-162.9,1.8c9.543,4.034,10.764,27.661-5.394,18.176l-.721.361c-1.336,2.246-3.894,8.026-7.919,6.665-5.288-1.8-5.288-14.716-2.336-19.077l.18-.189c.476.189.959.369,1.435.549.443,4.862-.221,9.444,2.345,12.051,10.1-.771-1.5-15.741,6.477-16.019,2.23,4.14,2.574,11.568,7.739,12.789l1.263-.722.361-.721C560.874,299.085,553.348,294.879,558.5,289.657ZM57.582,292.534c5.788,0,9.2,4.689,5.944,9.174-2.23-.59-4.443-1.189-6.665-1.8-3.927,8.067.869,22.422-4.681,28.989-.418-.131-.836-.246-1.263-.369q-3.861-8.276-7.739-16.561c-3.353-3.943-23.89-2.7-10.617-16.38,10.436.959,14.232,14.216,18.717,21.775H52c.18-.23.361-.475.541-.713C51.818,308.431,52.277,296.125,57.582,292.534Zm284.029,3.96q-30.78,3.234-61.561,6.485-15.925.455-31.858.894l-1.082,1.443q31.863,32.305,63.717,64.619c4.878,4.165,9.641,14.232,16.208,16.019,4.2-3.042,25.021-27.571,25.915-32.219q-2.435-16.024-4.862-32.039c-.9-7.337-.328-19.635-4.132-25.021C343.169,296.617,342.39,296.552,341.611,296.494Zm-187.732,4.321c.238.066.484.115.713.18-.09,5.583-12.543,21.971-2.878,27.718q1.894-1.168,3.779-2.336c2.173.984-2.943,8.354-3.6,9.174-.361.066-.721.123-1.082.189C139.122,328.164,147.55,308.783,153.879,300.815ZM308.851,311.8c3.181.074,25.39,11.887,25.915,13.322,1.164,3.124-9.625,22.414-11.691,24.291q-12.875-7.378-25.743-14.757C296.111,328.877,304.9,314.7,308.851,311.8Zm367.184,8.1q-12.322,9.346-24.652,18.717-.639,7.735-1.263,15.478c-2.574,18.225-1.574,42.836,20.7,40.68,6.731-.656,12.265-1.968,16.38-5.222,1.3-7.026-6.846-63.864-9.723-69.48Zm337.129,14.4c6.87.574,6.665,10.428-.9,7.92-1.082.3-2.156.6-3.238.9-.541.779-1.082,1.549-1.623,2.336,8.026,8.116,12.363-2.484,18.364-2.878l.541.541c.623,9.649-16.437,12.773-12.42,22.5,5.476,13.265,39.852-13.166,42.836-13.494.123.107.238.238.361.353l.18.541c-2.853,6.788-38.573,34.7-47.7,18.905-3.066-5.312,1.451-11.305,1.263-15.478q-4.5-2.976-9-5.944C997.924,343.659,1009.221,335.961,1013.164,334.3Zm-855.326,12.24c6.665-.139,21.455-1.435,24.119,2.878,4.206,6.837-14.97,31.531-18.544,34.375-4,3.206-22.619,13.257-28.612,12.429v-1.443q12.949-10.982,25.915-21.963c-.18-.3-.361-.6-.533-.894-5.353-1.32-30.112,2.894-30.6,2.148-2.984-4.493,8.7-23.791,11.879-25.193Zm335.326,2.156c5.067.41,9.805,5.64,5.936,10.264q-3.591-1.181-7.2-2.345c-4.714.9.369,25.644-3.96,30.416h-1.254q-4.771-8.006-9.543-16.019h-.361q-.984,1.537-1.984,3.058c-6.714-1.6-18.708-13.38-7.01-18,8.215-3.23,14.749,11.961,16.913,16.561h.721c.123-.115.238-.246.361-.353C483.9,363.072,485.982,351.431,493.164,348.693Zm-81.179,1.09c10.977.779,3.9,13.429,5.222,20.151.631,3.189,6.46,5.591,6.124,9.723l-.18.894c-.066.246-.123.484-.18.721-.18.3-.361.6-.541.9-.123.172-.238.361-.361.541-.361.353-.721.721-1.082,1.074h-.721q-2.878-3.234-5.755-6.477h-.721c-9.28,8.444-16.536,26.071-29.7,29.875l-.353-.713C391.251,395.587,405.5,388.93,410.9,375.7,413.616,369.057,390.2,358.227,411.985,349.783Zm-2.156,6.829c-.484.418-.959.836-1.443,1.263-.344,2.7,3.2,7.264,5.583,7.92l.541-.541C415.551,361.211,413.411,356.776,409.829,356.612Zm192.413,17.454c14.265.853,26.054,25.046,15.478,38.884l-3.6-.721c-.68,1.55-.959,3.033-2.7,3.6-.189-.172-.361-.353-.541-.533-1.853-14.24.107-18.487-11.887-25.382q-3.5-2.164-7.018-4.312c-.869-2.1.82-4.1,1.984-4.87,12.978-.033,18.34,14.544,21.053,26.456.3-.049.607-.115.9-.18,2.361-11.51-1.033-18.544-8.633-23.57q-3.16-1.808-6.3-3.6C599.529,377.641,601.07,375.255,602.242,374.066Zm-49.862.189c4.329.279,30.358,13.986,30.957,16.372.549,2.181-10.1,22.513-11.7,24.308q-16.11-8.018-32.219-16.019c-4.3,6.919-5.977,15.282-10.8,21.414-2.665.246-31.137-13.74-31.5-15.118-.59-2.222,10.781-22.316,12.24-23.217,4.3-2.656,23.381,13.306,30.416,11.51C543.7,387.774,546.371,377.846,552.38,374.255Zm392.025,0q15.3,6.382,30.6,12.773c.951,5.116-3.607,11.346-5.583,14.945q-1.894,4.857-3.779,9.715c-4.1,2.7-28.186-12.133-33.121-11.338-3.312,6.427-4.788,19.832-10.977,23.037-3.288,1.705-33.8-12.666-34.384-14.937-1.271-4.968,3.681-9.42,5.042-12.412,10.953-24.234,21.143,2.017,39.6.713C936.15,390.3,937.215,377.788,944.405,374.255Zm-178.37,4.5c7.3,2.017,16.913,25.9,4.14,28.792-3.607.82-5.55-2.156-8.1-2.878-2.787,2.927-6.911,10.543-12.961,6.124-3.115-2.279-5.632-20.84,0-22.324l.361.361c2.484,5.673-2.2,13.4,3.96,15.839,11.051-1.615.992-15.691,5.222-21.775.353-.066.713-.123,1.074-.18,3.558,2.935,4.034,22.439,12.248,16.38C772.66,392,758.911,384.732,766.036,378.756ZM276.271,390.627s-.91,17.643,1.623,21.783c1.443-.836,2.878-1.672,4.32-2.517,4.427,2.705.467,14.035-4.862,11.158C268.22,416.115,271.18,397.62,276.271,390.627Zm577.421,16.921c.3.066.6.123.9.18,1.156,4.419-9.641,16.142-1.8,20.881.9-1.262,1.8-2.517,2.7-3.779.426.066.844.123,1.263.18,3.05,4.747-1.287,15.29-7.378,10.445C841.173,428.929,848.781,411.762,853.691,407.548Zm-532.42,9.362c-2.263,2.911-27.948,39.048-17.462,43.377,9.084,3.755,35.212-11.2,36.359-15.118C341.832,439.5,324.706,417.386,321.271,416.91Zm118.432,3.6c-16.118,6.747-46.952,44.008-30.055,59.4,2.287,2.074,3.788,6.222,7.2,7.009,5.558,1.279,37.548-31.317,38.516-38.7s-2.984-15.4-5.936-19.438C446.983,425.453,445.311,420.608,439.7,420.509Zm-255.229,1.984c-3.64,1.254-11.158,5.058-10.8,9.362,4.755,2.755,19.717,2.427,24.66-.189l.18-.18-.18-1.254C194.395,427.38,190.992,422.575,184.475,422.493Zm392.746,8.633c4.107.311,27.349,12.068,28.079,14.585,1.476,5.058-9.059,25.98-12.6,26.644-8.5-4.755-19.127-8.362-27.718-13.683C565.325,448.974,571.2,435.652,577.221,431.126Zm-112.5,13.683c.992-3.017-1.828,10.6-7.756,22.865-6.247,12.937-17,24.39-17,24.39a45.14,45.14,0,0,0,20.086-2.025c22.652-7.936,58.068-25.39,59.38-32.088h-.18c-5.6-10.117-33.277-3.968-45-7.739Q469.5,447.519,464.724,444.809Zm-199.612,5.944c10.773.123,2.828,12.822,4.14,18.9.746,3.46,4.862,4.468,5.222,8.821-.959.894-1.927,1.8-2.886,2.7-1.672-1.017-3.353-2.041-5.034-3.058-4.181,2.312-8.124,12.748-10.805,16.741-2.566,3.829-28.268,26.71-30.416,25.923,4.411-11.658,39.393-33.785,38.163-46.632C252.856,466.075,249.339,457.147,265.113,450.753Zm491.921,3.779c-3.968,1.123-7.838,1.14-10.617,3.23l-.18,1.271c2.509,2.574,21.11,13.888,25.2,11.7C772.693,463.1,764.953,454.68,757.034,454.532Zm-117,1.443c-11.174,5.8-26.71,24.144-15.118,35.818q3.862,2.779,7.739,5.567c2.664.484,18.372-14.142,19.086-16.552C654.424,471.732,647.366,456.516,640.036,455.975Zm-377.621,2.509c-1.14.853-2.287,1.681-3.419,2.533.6,2.279,4.452,5.312,6.837,5.747l.721-.721C266.777,462.345,265.695,458.746,262.416,458.484Zm739.41,8.461,2.517.721a6.625,6.625,0,0,1-1.623,5.763q-43.09,20.967-86.213,41.942c-.18-.189-.361-.361-.541-.541C913.777,504.829,989.365,474.339,1001.826,466.944ZM161.8,477.2c3.607.066,7.452,3.091,7.559,6.665-.656.787-1.32,1.566-1.984,2.345q-2.878-.713-5.755-1.443c-4.009,4.771-.049,25.185-6.124,27.358-3.919-3.164-4.87-10.387-7.92-14.4-11.879-.353-12.56-13.953-5.034-14.216,5.985,3.386,6.854,11.543,12.051,15.118l.73-.361C157.74,490.539,156.633,481.98,161.8,477.2ZM812.11,496.294c3.066,1.812-8.682,21.66-1.615,27,.18-.066.361-.123.541-.18.672-2.591.574-4.517,3.6-4.87.3.189.6.369.894.549,3.476,4.993-3.369,15.9-8.641,11.879C798.066,523.914,807.06,500.779,812.11,496.294Zm-57.232,32.039q14.3,6.382,28.612,12.773c1.861,3.017-7.723,26-10.436,26.636-1.845.443-29.128-13.429-29.7-14.749C741.023,547.566,751.451,530.448,754.878,528.333Zm-83.7,18.889c4.763.025,12.068,4.616,12.953,8.28,2.2,9.1-12.42,6.083-13.314,12.781-1.238,9.207,9.617,30.022,3.058,41.582-.361.057-.721.115-1.082.18-.18-.18-.361-.353-.541-.541q-.541-10.268-1.074-20.52C669.247,577.711,658.491,554.141,671.182,547.222Zm-.18,7.559c-.541.91-1.082,1.8-1.623,2.705.238.115.475.246.721.353,1.2-.41,2.4-.828,3.6-1.254l.18-.533-.18-.549ZM296.25,556.224c.721.3,1.443.6,2.164.9.123,2.361.082,3.1-1.263,4.32q-18.089,10.527-36.179,21.053-10.44,7.206-20.881,14.4H239.01l-.18-.18c-.172-.18-.353-.353-.533-.541C236.829,586.41,286.969,562.307,296.25,556.224Zm-131.935,14.4c.246.065.484.131.721.18,1.558,4.894-11.174,27.825,0,30.243l.9-.361c.894-1.754,1.279-4.238,3.6-4.14.18.3.361.6.533.893,1.017,4.837-4.3,14.519-9.535,9.551C152.969,599.8,158.207,576.064,164.315,570.62Zm137.879,17.1c22.086-.771,15.946,28.776-1.443,26.1C286.182,611.587,289.97,591.853,302.194,587.721Zm654.632,16.028Q972.21,610.4,987.6,617.063c.541,4.575-2.919,8.633-4.321,12.068-1.656,4.075-2.919,10.633-6.477,12.773-5.206,3.124-29.35-9.526-32.4-12.06C939.314,625.6,952.645,604.774,956.826,603.749Zm-648.877,11.51c18.143.18,15.97,28.358-3.058,25.21C288.724,637.772,294.856,619.793,307.949,615.259Zm322.373,4.5c7.7-.139,43.016,1.025,43.377,3.058-16.29,5.427-64.963-8.157-67.5,11.879-1.418,11.2,21.2,5.124,27.177,6.665,1.951,5.239-7.083,6.288-5.936,12.429.3.172.59.352.894.533,3.738.476,13.83-5.058,15.659-7.739l-.361-.721c-3.46-1.943-8.051-4.46-9.535-8.28-3.451-8.87,4.288-7.7,8.641-5.042-.246,1.2-.484,2.4-.721,3.6,4.116,6.468,10.313-.828,7.018,11.338-1.32,4.894-5.837,6.165-8.461,9.723.418,1.2.844,2.4,1.263,3.6,4.64,1.541,12.511-3.124,14.937-5.583-1.968-4.657-6.149-8.608.721-12.593,4.763.951,5.017,5.353,9.723,6.468,1.427-.705,6.977-2.41,7.551-3.951-3.468-.566-6-.467-8.1-2.164-1.476-7.428,9.108-7.518,13.142-10.789-.836-7.747,7.829-9.846,11.166-3.968,2.664,4.722-5.665,7.928-8.28,9.182v.9c4.189.344,9.764-3.443,13.134-1.082.787,8.264-16.2,14.831-23.759,16.019l-.18,1.082.18.18c10.486,3.845,23.816-4.066,28.62-11.7v-.9c-1.3-.893-2.164-1.468-1.984-3.427,1.213-2.755,6.3-6.567,8.108-1.787,1.722,4.542-4.64,11.068-7.026,12.773V650c.123.115.246.246.361.361l12.42-2.164c6.878,2.058,4.279,13.027,0,16.552-8.8,7.288-23.6,6.395-36.179,10.092-.541.172-1.074.352-1.623.533-5.608,3.4-8.485,15.527-14.757,17.29-.18-.188-.361-.369-.541-.549,1.082-7.264,9.2-10.068,10.986-16.741-.18-.3-.361-.6-.541-.894q-5.226-1.353-10.445-2.7c-3.312,4.739-9.6,10.231-14.216,2.337l-1.443-4.681c-2.156-1.14-4.32-2.287-6.477-3.419-.484-2.4-.959-4.8-1.443-7.2-.18-.057-.361-.123-.541-.189-2.648,1.271-9.723,5.649-11.338.549l.721-10.092c-9.543-2.525-21.02,1.361-23.939-8.813C597,627.048,620.434,622.294,630.321,619.76Zm-253.433,6.3c4.14.533,13.4,8.911,9.543,13.683l-10.445,2.878c-.131,7.059,12.552,29.637,7.92,36.72h-.894q-6.124-18.286-12.24-36.54c.615-5.124,3.665-5.4,5.936-8.461l-.18-.541-.721-.361c-1.517,1.017-2.828,1.992-4.5.9C370.493,629.983,373.9,627.327,376.888,626.065Zm-154.611.533c8.838.705,23.677,6.534,28.792,11.879.254,4.247-6.46,24.5-9.354,25.029-2.632.476-28.235-11.625-28.62-12.6C211.463,646.806,220.252,628.459,222.277,626.6Zm436.656,1.09c3.722-.148,6.346.4,7.206,3.23-.7,4.025-7.215,8.453-11.346,8.28-.115-.107-.238-.238-.352-.353l-.18-.541c1.2-1.14,2.4-2.279,3.6-3.419-2.255-.656-3.624-.361-4.862-1.976C653.686,629.418,655.539,628.524,658.933,627.688ZM824.35,635.78l1.443.721c.041,6.813-9.617,16.306-5.944,23.578.426.066.844.123,1.263.189,1.2-1.632,2.181-3.607,4.5-4.14.238.107.484.238.713.353,3.542,5.075-6.731,15.856-11.158,9.9C810.642,660.276,820.529,638.928,824.35,635.78ZM521.063,646.4c16.241.926,3.214,17.323,1.984,23.4,6.395,10.3,33.851-8.3,39.237-9.9.238.172.484.361.713.541.066.115.123.229.18.352-3.3,7.141-36.031,26.357-44.459,15.126-6.206-8.3,10.207-15.159,5.583-20.889-4.8-5.944-9.9,2.591-11.7,5.23h-1.435c-.18-.254-.361-.484-.541-.721C510.954,652.684,515.39,648.167,521.063,646.4Zm186.47,9c-5.058,1.713-27.833,5.214-23.759,11.338,5.107-.869,8.518-4.64,11.527-5.05l3.591,2.164c2.181-1.328,2.558-4.64,5.222-4.854q1.537,1.168,3.058,2.337l4.5-2.878-.172-1.8C710.172,656.234,708.853,655.824,707.533,655.406ZM662.18,656.48c-4.435,4.271-8.674,6.87-13.863,10.625-.057.361-.123.713-.18,1.074q1.439,1.168,2.886,2.345a3.644,3.644,0,0,0,3.771-1.263c1.689-1.812,2.32-5.222,5.222-5.755,5.7-1.057,20,10.477,20.52-1.812l-.721-.721c-1.8.787-3.6,1.574-5.395,2.353C668.632,662.563,666.722,657.3,662.18,656.48Z" transform="translate(0)" fill-rule="evenodd" fill="url(#linear-gradient)"/>
    </g>
    <g id="Group_37379" data-name="Group 37379" transform="translate(-263.232 3783.594)">
      <path id="Path_2574-2" data-name="Path 2574" d="M546.625,90.406c.418.3.836.6,1.254.9-2.451,11.961-8.338,21.135-12.781,30.776-15.068,32.711-36.581,58.175-55.437,86.754-3.378,5.132-27.079,35.212-26.1,38.155q18.8-5.485,37.622-10.969Q539.96,220.357,588.74,204.7c8.657-2.115,45.779-12.158,48.239.91,3.181,16.872-34.654,49.026-37.261,66.406q13.5,8.1,27.005,16.2c.5,4.042-8.215,22.455-10.625,25.562-5.288.664-13.822-7.477-18.356-9.723-3.779-1.861-12.084-4.509-13.5-8.633-3.689-10.732,31.531-52.526,36-61.2,1.008-1.951,1.3-3.943,0-5.944-8.51-13.019-100.47,18.422-103.675,23.045-3.517,5.058-3.394,13.863-4.5,21.053-5.55,36.171,15.831,68.767,51.838,66.595,38.073-2.279,62.553-13.9,88.025-28.612q10.158-6.026,20.332-12.06c3.771-3.033-2.771-29.186-3.779-36.187-4.878-33.933-13.609-69.12-22.857-100.248l-3.066-12.781c-.336-4.976,6.214-24.628,9.543-25.382.18.18.361.361.541.549A829.5,829.5,0,0,1,677.3,233.671q4.587,26.107,9.182,52.207c.115.057.238.123.361.18q6.112-4.771,12.232-9.543,6.665-6.837,13.322-13.683c1.361-4.993-6.714-20.824-8.461-24.833-6.8-15.667-9.813-33.342-16.733-49.862-1.722-4.1-8.083-9.977-8.469-13.5-.68-6.329,4.583-20.881,7.747-25.013,2.287-.09,25.423,31.965,25.734,37.614-.6.484-1.2.967-1.8,1.443-1.8-.894-3.6-1.8-5.4-2.7-.418.18-.844.361-1.263.533,1.4,24.734,22.849,39.729,18.184,71.284-2.4,16.257-8.42,30.481-18.545,39.057q-6.382,6.112-12.773,12.24,5.214,36.081,10.436,72.178c6.944.82,28.473-21.168,33.842-25.734,7.641-6.518,37.95-37.335,39.417-46.624q-1.451-7.649-2.878-15.3c-5.386-24.415-11.888-47.271-21.061-68.037l-.541-1.8c-6.977-15.8-11.51-23.98-7.206-45.172.623-3.042-.041-6.624,2.705-7.026,6.641,5.321,10.289,17.79,14.035,25.923,8.764,19.028,18.34,39.155,22.5,63q4.6,31.863,9.19,63.717c12.306,41.836,51.428,44.73,92.87,28.44,12.584-4.944,29.571-8.584,39.057-17.1q-8.448-6.112-16.913-12.24c-16.954-15.757-30.94-50.5-15.839-76.859,15.585-27.194,61.348-40.459,92.149-17.815,4.386,3.23,11.018,6.452,12.429,12.42l-.361.721c-.492.107-19.479-6.665-25.382-7.559-18.34-2.787-68.923,14.618-71.276,23.578-1.664,6.337,9.485,25.915,12.24,29.694C919.852,301,942.872,319.326,968.7,311.8q16.921-8.461,33.834-16.929c4.747-2.656,33.678-20.209,36.72-18,1,2.607-2.533,6.977-3.591,9.9q-2.619,7.649-5.222,15.3-18.716,10-37.441,19.979-30.239,16.294-60.479,32.572c-30.867,15.429-55.658,32.342-98.273,36.9-9.108.976-17.167-3.911-23.578-5.395-4.591,4.419-4.5,14.593-5.222,21.775-4.132,40.86,37.86,56.429,78.294,49.5,31.235-5.353,54.682-18.618,79.556-29.874q17.635-8.547,35.285-17.1c10.649-6.485,40.131-23.267,56.88-17.462,3.386,1.181,8.215,5.558,7.731,10.436-1.23,12.568-40.811,81.753-48.23,86.582-.484-.3-.967-.6-1.443-.9.73-10.846,17.61-37.778,23.217-46.8,2.615-4.206,10.4-11.092,9.715-16.921-13.56-11.174-51.5,12.043-60.479,17.454q-13.4,6.665-26.817,13.322c-29.383,16.487-87.172,46.386-131.754,27-24.324-10.584-37.187-36.351-31.137-71.456q3.775-14.757,7.559-29.514c-.3-1.91-14.6-19.069-17.274-26.1-3.2-8.387-3.911-18.971-5.4-28.981l-1.623-15.47c-.115-.123-.238-.238-.361-.369h-.361c-.18.066-.361.131-.533.189q-1.894,12.236-3.779,24.472c-6.993,17.52-36.573,47.091-50.944,58.864q-9.629,7.465-19.258,14.937,4.144,32.4,8.28,64.8c.361.18.721.353,1.082.541q4.944-8.375,9.9-16.741,2.25-5.5,4.5-10.986c1.558-1.845,3.812.057,5.763-1.074,7.9-4.591,29.538-32.359,44.279-14.585,11.707,14.126,11.8,47.78,2.336,64.078-1.386,2.386-2.648,5.944-5.575,6.665-11.732,2.869-35.113-13.962-41.221-18.9q-3.5-3.333-7.026-6.657c-4.025,4.271-10.8,15.208-11.691,21.594q1.341,10.256,2.7,20.512c4.034,26.005,4.5,56.125,17.1,73.8,5.345,7.51,13.511,12.338,24.652,14.044,35.794,5.46,40.45-29.571,57.421-44.64,2.041-1.812,4.8-4.2,7.739-2.517,1.672,4.558-1.435,9.444,1.082,14.035,21.053,38.442,90.353-1.91,110.873-15.847-.057-.3-.123-.59-.18-.893q-28.973-4.489-57.954-9c-1.558,1.566-3.123,3.123-4.681,4.681-4.214,3.009-10.838.172-16.2-.541-6.78-.9-33.31-1.066-35.277-4.312.09-6.067,5.927-21.889,10.436-24.841,20.856-13.65,80.122,2.082,104.036,5.575l40.319,3.419c11.928,1.738,61.536-3.484,65.693,1.632q-6.026,11.953-12.06,23.931c-4.362,3.411-26.808,1.394-34.375,2.7a154.651,154.651,0,0,0-28.8,7.92c-28.792,10.8-92.509,63.586-128.516,49.321a40.23,40.23,0,0,1-18.356-15.487q-2.607-5.3-5.222-10.617c-6.755,3.124-9.879,16.561-13.675,22.857a54.847,54.847,0,0,1-16.2,16.388c-9.576,6.059-24.66,8.854-37.622,4.853-32.957-10.149-35.966-53.551-41.213-91.255q-1.808-14.474-3.607-28.981c-.115-.115-.238-.238-.361-.352q-3.775,2.792-7.551,5.575c-8.953,5.641-18,10.486-30.784,12.428-9.723,1.459-19.676-1.041-27-3.058q-4.685-1.906-9.362-3.788-4.4,3.062-8.821,6.124c-10.174,5.878-30.6,14.609-45.353,6.477-11.027-6.075-18.167-14.413-22.5-27.186-1.427-4.206-1.385-10.059-3.952-13.134-3.443.23-5.337,2.484-7.026,4.5q-9.715,13.134-19.438,26.284c-9.444,11.445-22.906,19.52-34.917,28.432-2.082,1.541-8.477,2.869-7.378,5.763,33.072,6.444,69.3,5.3,104.4,8.461,9.92.885,46.615-3.517,53.092.352,1.238,3.542-10.51,23.045-13.134,26.284-10.576,1-22.865-.623-34.023,1.082-25.144,3.837-54.994,18.258-74.694,29.333-15.282,8.6-48.034,29.415-71.637,25.029-18.364-3.419-31.153-19.135-37.441-34.564-2.14-5.263-9.166-28.145-14.577-27.727-8.51.672-14.331,7.526-19.438,11.879-8.026,6.837-15.478,17.446-20.34,27.185-11.182,22.357-10.625,61.266-33.482,71.637-8.124,3.681-15.749-2.8-20.34-6.124-20.283-14.667-26.841-46.189-30.776-77.039q-1.353-12.937-2.7-25.915c-.18-.057-.361-.123-.541-.18q-10.9,6.936-21.783,13.863l-.9-.721a8.9,8.9,0,0,1,2.886-7.018c4.706-4.025,52.444-33.465,56.158-32.949.18.188.353.369.533.549.951,6.28-25.882,18.832-31.137,22.865q1.709,8.8,3.419,17.626c4.484,29.866,8.059,57.872,29.7,70.563,2.664,1.566,7.337,3.738,11.519,1.8,18.676-8.633,22.791-46.7,31.137-66.955,6.493-15.749,15.569-28.628,27.718-38.7,5.108-4.23,10.8-10.338,18.545-11.7,9.313-1.64,23.373,37.671,28.612,44.992,23.48,32.826,61.241,13.1,89.46.721q10.527-5.4,21.061-10.789l-.18-.549-98.642-10.8L416.486,587c-2.968-6.6,5.911-24.923,9.9-27.349,13.79-8.4,30.391-13.831,45.714-20.34,20.717-8.8,39.368-22.553,52.92-38.7,5.108-6.083,19.061-33.539,29.342-30.252q1.34,6.665,2.7,13.322c5.263,17.02,16.79,29.9,39.237,29.711,5.944-.066,14.052-1.017,16.561-4.689.361-4.952-3.066-11.74-2.337-18.717,2.049-19.8,17.241-66.029,36.892-63,17.159,2.648,17.757,36.753,13.683,53.822q-3.148,11.436-6.3,22.865c11.592,5.8,42.565-7.772,45-13.322.943-2.132-7.575-69.415-9.174-72.358-8.452-.5-15.544,7.846-28.079,5.575-20.783-3.755-24.857-33.359-20.881-58.314q2.152-11.609,4.32-23.217c-.3-.18-.6-.361-.9-.541-32.941,17.634-80.155,40.795-119.875,13.134a50.655,50.655,0,0,1-18.536-23.939c-6.173-16.831-6.288-39.245-2.525-58.675q1.98-8.375,3.96-16.741c-.885-.607-59.9,16.757-65.332,19.807-.541.484-1.082.951-1.623,1.435q4.316,30.682,8.641,61.381c2.705,21.193,9.379,64.34,21.422,75.768,6.329,6.026,17.052,9.9,27.718,11.346,18.692,2.558,36.6-7.206,32.572,19.979-1.582,10.74-3.115,21.422-7.92,29.342-12.388,20.455-50.977,40.721-78.835,45.9-8.124,1.5-17.889.156-24.48-1.992q-3.861-1.34-7.739-2.7-6.751,4.243-13.5,8.461c-7.387,4.812-16.437,8.526-25.193,11.7q-10.256,2.521-20.52,5.034c-5.042.369-10.076.721-15.118,1.09-1.041,8.9,7.854,26.03,1.615,36.359-14.413,5.1-36.1-23.98-40.311-33.843-1.189-2.771-1.123-9.83-3.607-11.338-5.05-3.074-18.594,2.131-22.5,3.96-38.581,18.118-58.642,65.193-83.516,97.559-6.411,8.346-23.865,33.916-38.7,31.5-20.069-3.279-35.5-40.975-31.317-68.037q2.164-11.252,4.32-22.5c-.18-.18-.361-.361-.541-.549-10.83-.967-21.275,2.624-32.039-1.615-27.021-10.641-34.752-52.6-29.694-91.435q2.164-17.364,4.32-34.744c-2.525-2.509-5.042-5.042-7.559-7.551-3.878-5.157-6.263-13.675-7.387-21.242-3.271-22.012,26.038-91.968,34.925-93.059.18.18.353.361.533.541-.639,10.461-7.182,19.036-10.789,27.005-5.042,11.109-10.33,23.308-12.42,36.54-1.73,10.879,7.813,36.507,17.454,29.333,5.542-4.116,5.239-14.29,9.715-19.438.3.057.607.115.9.172,4.394,5.64-7.173,35.129-10.076,39.245q-4.685,4.673-9.362,9.354Q70.9,458.672,69.641,469.3c-4.255,31.736.41,66.135,24.841,75.416,36.671,13.913,87.91-32.219,104.216-51.124,4.862-5.64,21.365-18.774,19.979-28.792-.353-2.5-1.213-9.248-3.238-10.092l-16.38,4.329c-19,5.411-37.605,1.582-40.319-16.741-3.173-21.365,14.97-53.4,35.457-46.435,15.249,5.165,19.127,18.708,29.342,28.62,4.616-.287,19.438-8.362,19.8-11.879-.156,1.55-1.287-5.321-4.271-10.4-3.435-5.837-8.682-10.641-12.158-16.429a303.06,303.06,0,0,1-19.684-39.466s.312-17.438,3.886-25.685c.361-.131.721-.238,1.082-.369,7.518,9.092,20.365,19.184,24.3,30.957-.238.3-.475.607-.721.91q-3.861-1.267-7.739-2.525l-.361.361c3.894,15.241,19.717,22.791,23.578,39.237,4.222,17.921-.41,39.819-9.174,50.223q-6.3,4.857-12.6,9.723-1.98,10.158-3.96,20.332c-3.927,15.757-8.813,28.218-17.282,39.057-14.347,18.381-34.818,37.155-54.174,50.4q-12.334,7.28-24.66,14.576c-6.485,11.166-5.722,46.673.18,56.519,11.838,19.758,32.3,5.673,41.934-5.395,16.118-18.512,30.891-39.122,45.181-59.4,9.666-13.724,19.4-29.21,32.039-39.958a101.951,101.951,0,0,1,29.875-18q7.563-1.439,15.126-2.869c1.017-1.681,2.041-3.361,3.058-5.042.418-.066.844-.123,1.263-.18,8.37,3.7,11.068,8.747,18.462,10.51,46.96,11.24,79.991-11.232,79.991-11.232s-4.665-14.429-1.689-27.907c4.771-21.627,19.438-47.984,31.211-62.446,3-3.7,14.675-12.01,16.019-15.126q-8.288-54-16.56-108c-.361-.066-.721-.115-1.082-.172q-21.865,28.075-43.738,56.15-5.312,7.108-10.617,14.224,1.98,14.941,3.96,29.874c3.542,24.5,10.068,105.135-4.32,119.342-2.755,0-3.525-25.562-2.878-31.145.713-6.141-.557-13.658-1.443-19.618-2.951-19.9-3.984-40.278-6.837-58.495-.992-6.321.312-14.035-2.705-18.725l-1.8-.533c-1.918.738-17.093,20.578-17.274,23.218q4.858,8.546,9.723,17.1c9.846,26.054-.951,53.789-18,63.889-5.821,3.46-22.586,14.281-30.957,7.559-11.814-9.477,1.427-56.3,5.583-65.873,1.09-2.541,8.887-15.4,8.452-16.921-1.722-6.059-35.1-38.376-41.573-44.107q-27.448-28.6-54.9-57.224c-.238-.066-.475-.131-.713-.189q-37.987-3.677-75.957-7.37l-34.023-7.206-.541.361q2.607,23.476,5.222,46.984,4.5,44.9,9,89.82c2.23,15.995,4.845,37.7,2.878,54.346-2.033,17.257-.049,51.961-10.076,60.126-.426-.131-.844-.246-1.263-.361.476-8.944-.943-49.181-2.886-61.922q-9.887-96.559-19.8-193.135c-.328-1.017-23.865-12.552-26.817-14.765-20.242-15.159-31.473-37.384-44.992-59.388-2.517-4.1-9.223-11.24-8.821-16.561.18-.188.353-.361.533-.541H7.54Q14.832,202,22.124,210.281c7.247,8.387,47.853,42.828,59.938,41.934.18-.172.361-.353.541-.533q-3.247-35.736-6.485-71.456-3.148-13.33-6.3-26.644l9-26.636c.721.057,1.435.115,2.156.18,4.3,6.3,28.112,64.545,25.382,71.1-.426.057-.844.115-1.263.18q-4.685-4.858-9.362-9.723c-4.747,8.362-.82,25.89.361,34.2l4.5,34.728c3.935,5.78,70.382,18.29,83.7,16.749.18-.18.361-.369.541-.541v-.361Q161.7,244.3,138.581,215.143q-6.3-5.669-12.6-11.346c-2.8-5-4.124-23.463-1.984-28.792,3.361-1.664,47.9,33.129,53.1,38.876,1.172,1.3,1.533,1.656.721,3.238l-15.3-2.336-.361.361c1.5,6.075,50.4,58.995,55.978,61.012l15.118.541c15.978,2.279,35.728,1.017,52.559-.894,12.15-1.394,48.5-.557,55.256-5.222q-1.98-15.569-3.96-31.137l-7.92-68.939q-2.521-9.985-5.042-19.979c.525-3.779,7.149-23.75,9.362-25.382,2.517.976,27.776,58.88,24.66,63.9l-.721.361q-4.944-4.23-9.9-8.452l-.18.172-.18.18c-.475,1.746-.959,3.484-1.435,5.214q3.6,24.214,7.2,48.427c1.123,8.756,1.082,27.317,5.042,33.113,8.756.287,58.962-9.034,63.537-12.592q-1.623-11.781-3.238-23.578-3.062-27.177-6.124-54.363-3.148-12.519-6.3-25.021,4.316-12.691,8.641-25.374l1.254-.369c3.361,2.214,27.046,57.773,24.48,63.184-.361.057-.721.115-1.082.18q-5.03-4.587-10.076-9.174c-.18.172-.361.352-.541.533-1.664,6.395,5.9,59.462,8.28,63.176.361-.066.721-.115,1.082-.172,27.03-32.875,50.575-68.915,75.416-103.856Zm101.159,1.443h.894c.238.3.476.6.721.894q-2.607,4.857-5.222,9.723-46.337,25.566-92.7,51.116c-5.46,2.935-26.185,18.241-30.6,15.839-1.648-7.526,22.389-19.553,28.44-23.037q30.325-16.921,60.659-33.842C622.3,105.6,637.2,100.744,647.784,91.849Zm-223.2,4.493c.656.3,1.32.607,1.984.9V97.6l-.18.541c-.967,1.5-1.927,2.992-2.878,4.5q-20.254,9.272-40.5,18.544-13.589,7.993-27.185,16.011c-.6-.541-1.2-1.074-1.8-1.615C353.351,125.749,414.034,103.433,424.586,96.342Zm88.377,2.878c.721.3,1.435.607,2.156.9-.057,1.32-.115,2.64-.172,3.968l-.189.353c-.3.418-.6.844-.894,1.263q-8.645,3.05-17.282,6.116c-16.987,8.862-33.875,18.061-50.034,27.366-.3.172-.607.353-.9.533h-.721c-.418-.3-.844-.6-1.254-.9C442.573,129.422,501.633,104.261,512.963,99.219Zm-198.538,5.042,1.8.721c-.533,7.346-26.079,15.536-33.113,18.544-29.366,12.535-59.454,24.341-86.582,39.77-4.648,2.656-23.718,10.092-24.119,14.4l5.042,2.164c2,5.763-5.845,6.4-8.28,3.058-2.041-2.8-.607-8.3.894-10.256,6.288-8.157,31.17-18.463,42.123-22.5q25.738-12.236,51.485-24.472Q289.048,114.968,314.425,104.261Zm583.184.361c.418.189.836.361,1.254.541-1.377,5.231-8.28,16.741-2.156,21.963,1.2-.418,2.4-.844,3.6-1.262l.9,1.082c1.672,7.51-7.78,9.453-10.617,3.591C886.739,122.6,894.109,108.729,897.61,104.622Zm-714.93,5.4c4.714.09,11.789,9.592,6.477,11.338-2.328.762-4.55-4.468-7.92-4.321-4.886,5.173-1.5,25.316-5.583,32.58-.361.057-.721.115-1.074.18-.123-.123-.246-.238-.361-.361-3.419-4.747-3.943-11.551-7.92-15.659-3.755-3.87-22.094-.762-14.765-12.781,7.116-11.65,19.955,11.6,22.865,16.2.238.066.475.115.713.18.18-.18.361-.361.541-.533C175.6,126.068,175.784,114.312,182.679,110.025Zm555.63,0c3.779.18,7.542,3.14,9.19,5.575-.664,1.509-1.32,3-1.984,4.5-3.23.59-4.755-3.238-7.559-2.517-5.075,1.3-3.673,26.726-7.559,32.039h-1.443c-3.468-4.55-4.361-13.953-9.362-16.921-7.542,2.082-19.782-8.362-10.977-15.659,10.264-1.631,16.323,12.847,20.16,19.258.3-.172.6-.361.9-.541C733.177,124.544,729.217,115.23,738.309,110.025Zm252.712,2.7c.9.3,1.8.607,2.705.9.779,2.025.6,5.034-.9,6.3q-24.927,8.559-49.862,17.1-29.145,12.322-58.314,24.66c-21.094,9.133-42.287,18.151-61.2,29.883-6.862,4.255-30.768,14.765-32.391,21.947,2.377,3.861,6.936,4.362,10.436,7.034q-.812,2.693-1.623,5.395c-3.4.5-6.616-1.935-8.813-3.427-19.873-13.4,29.784-36.687,37.073-40.844C877.663,153.369,934.551,133.34,991.021,112.722ZM102.041,121s10.313,3.328,16.569,10.527c7.132,8.231,10.051,20.979,5.206,30.153-1.828-.828-.59-2.164-.353-4.148,2.419-20.783-24.169-31.317-24.169-31.317Zm709.888.189c9.076.139,33.121-1.976,35.818,4.845,1.476,3.722-1.615,6.9-2.517,9-8.731,20.4-20.947,25.333-41.4,34.031-3.583,1.517-9.969,6.665-14.035,5.567-.18-.172-.361-.353-.541-.533,2.238-8.272,24.292-16.577,29.694-23.406l-.533-1.435c-10.248-2.6-22.89,1.558-32.219.713-.361-.3-.721-.59-1.082-.894-1.008-7.215,7.8-21.988,12.6-24.833C801.46,122,807.314,122.756,811.929,121.191ZM290.88,152.336s-.18,3.468-2.009,5.026h-.541s-2.591-2.992-5.214-3.238c-4.28,3.025-3.132,13.4-3.4,21.914a52.1,52.1,0,0,1-2.181,13.191h-1.263s-3.656-14.9-9.535-18.372c-9.494,3.837-21.545-9.576-11.346-15.29,6.936-3.894,17.093,12.888,19.438,16.561.246-.066.484-.123.721-.189.123-.123.246-.23.361-.361-.1-12.3,3.517-23.34,7.747-24.972C286.805,145.4,290.88,152.336,290.88,152.336ZM594.323,155.2c4.976.139,14.978,9.723,6.477,11.707-1.648-1.41-3.976-3.738-6.477-3.607-7.739,4.353-1.869,30.071-7.559,32.941-2.837,1.426-8.3-15.118-11.527-17.634-7.567,4.534-19.086-6.493-9.9-12.248,10.732-6.7,15.487,14.716,20.16,15.314C587.272,170.7,586.174,159.763,594.323,155.2Zm411.283,3.247c5.116.082,10.133,8.707,4.32,11.519-1.385-1.025-2.763-2.033-4.14-3.058-.361.057-.721.123-1.082.172-5.009,6.649-.557,30.588-8.821,33.31-.353-.066-.713-.131-1.074-.189l-6.124-15.3c-1.492-2.4-25.661-9.4-12.24-18.545,8.649-5.886,16.667,17.233,19.438,21.242h.541l.18-.18C998.53,175.676,996.735,163.075,1005.605,158.443Zm-75.777,2.517H930.9c.189.549.369,1.082.549,1.623-3.164,5.026-14.281,27.366-2.886,31.49,1.254-1.394,2.214-3.484,4.32-2.509,2.337,6.755-5.075,13.847-9.9,7.911C913.645,187.99,923.016,168.847,929.829,160.96Zm-879.265,13.5c.3.066.6.115.894.172-.008,3.73-12.117,21.488-3.238,24.128.844-.967,1.681-1.927,2.525-2.878.353.18.713.353,1.074.533.754,4.05-2.7,8.912-6.837,9C35.159,198.607,46.457,179.874,50.564,174.463Zm475,8.28,1.082.352c-.549,7.149-13.625,15.839-4.681,27.727,2.312.049,2.91-2.8,4.14-4.321h.721c.238.172.475.353.721.533,1.361,4.591-2.968,10.3-7.206,10.805C508.29,210.158,519.694,187.965,525.564,182.743Zm-315.527,5.575c2.484,1.812-9.731,22.734,1.254,29.342,1.82-1.41,1.623-7.223,4.5-5.763,1.271,6.116-4.4,15.306-9,9.9C199.822,213.593,204.757,195.68,210.037,188.318ZM881.41,193.9a11.814,11.814,0,0,1,7.378,5.042c-.09,2.5-1.631,4.911-3.779,5.394-1.369-1.238-2.632-2.861-4.862-2.7-8.592,5.3,1.525,26.612-6.657,32.941l-.721-.361c-2.443-5.345-4.73-13.134-9.182-16.56-11.74,3.509-19.823-14.8-9.174-16.741,8.666,4.624,12.83,10.42,17.635,18.905h.361C876.975,214.9,869.448,199.541,881.41,193.9Zm-485.625,8.28c5.083.73,7.378,5.968,4.681,10.617h-.9c-1.672-1.353-2.656-3.689-5.583-3.238-7.165,4.05-2.181,32.564-8.633,32.588q-4.144-8.19-8.28-16.38c-.3-.066-.6-.131-.9-.189-.541.721-1.082,1.435-1.615,2.164-5.108-.451-16.249-11.912-7.739-15.847,8.8-4.066,15.6,13.683,18,18.905.3.057.6.115.9.172.18-.172.361-.361.541-.533C386.218,218.7,386.923,205.764,395.785,202.181Zm-130.672,4.14c7.28.082,25.948-.541,28.259,5.042,1.754,4.23-1.64,8.879-2.705,11.338-8.485,19.668-28.21,28.391-50.395,34.2-.3-.476-.6-.959-.894-1.435,8.993-9.125,23.168-13.494,31.85-22.857l-.18-.549c-.18-.172-.361-.353-.541-.533q-11.6-.64-23.218-1.263c-2.968.533-6.7,2.386-9.9,1.263-.18-.3-.361-.607-.541-.91,1.8-6.3,8.01-19.717,13.683-22.135Q257.816,207.4,265.113,206.321ZM125.439,221.8c.238.057.475.123.721.189.2,6.928-10.117,13.79-2.525,22.5h.721q1.254-1.537,2.525-3.066c.476.246.959.476,1.435.73,1.2,4.468-3.247,12.592-7.378,8.272C113.527,242.672,120.315,226.587,125.439,221.8Zm723.571,2.7,2.345.721c.508,3.058-2.025,5.255-3.066,7.92-6.026,15.38-18.192,34.228-20.16,50.755-1.271,10.674,6.509,36.089,17.462,31.686,5.788-2.337,3.123-15.806,8.461-19.086.361.123.721.238,1.082.361,4.755,7.551-11.133,64.758-31.145,39.778-22.332-27.874,3.607-75.547,16.019-95.928C843.329,235.261,844.034,228.235,849.01,224.5Zm-531.158,6.665c.418.066.836.115,1.254.172l.18.189C319,233.9,303.841,254.6,315.327,257.8c.844-1.32,1.681-2.64,2.525-3.968h1.254c.123.246.246.484.361.721-.131,4.419-2.23,8.362-5.222,10.092C299.521,261.34,313.409,235.507,317.852,231.162ZM590,240.156l1.8.721a5.027,5.027,0,0,1-1.443,4.862q-31.678,17.278-63.356,34.564l-.9-.9C525.08,270.842,580.533,246.337,590,240.156ZM475.7,283c.426.361.844.713,1.263,1.082.844,6.116-12.929,19.684-3.779,28.792,2.566,2.558,3.124-1.058,4.32-2.878h1.254c1.484,3.8-1.14,8.813-2.878,10.8C458.592,323.147,472.308,287.476,475.7,283Zm-70.013,1.435q-21.877,4.587-43.738,9.182,2.693,20.242,5.394,40.5c.123.115.246.246.361.353,3.894-.951,37.548-43.8,39.065-49.313ZM721.4,287.861c13.675,2.222,24.2,17.594,19.618,34.728-.68,2.55-.393,5.55-2.517,6.665-.189-.18-.361-.353-.541-.541.894-18.766.664-23.75-12.6-31.678-1.861-1.107-5-2.009-5.583-4.312C719.182,290.354,720.593,288.9,721.4,287.861Zm-162.9,1.8c9.543,4.034,10.764,27.661-5.394,18.176l-.721.361c-1.336,2.246-3.894,8.026-7.919,6.665-5.288-1.8-5.288-14.716-2.336-19.077l.18-.189c.476.189.959.369,1.435.549.443,4.862-.221,9.444,2.345,12.051,10.1-.771-1.5-15.741,6.477-16.019,2.23,4.14,2.574,11.568,7.739,12.789l1.263-.722.361-.721C560.874,299.085,553.348,294.879,558.5,289.657ZM57.582,292.534c5.788,0,9.2,4.689,5.944,9.174-2.23-.59-4.443-1.189-6.665-1.8-3.927,8.067.869,22.422-4.681,28.989-.418-.131-.836-.246-1.263-.369q-3.861-8.276-7.739-16.561c-3.353-3.943-23.89-2.7-10.617-16.38,10.436.959,14.232,14.216,18.717,21.775H52c.18-.23.361-.475.541-.713C51.818,308.431,52.277,296.125,57.582,292.534Zm284.029,3.96q-30.78,3.234-61.561,6.485-15.925.455-31.858.894l-1.082,1.443q31.863,32.305,63.717,64.619c4.878,4.165,9.641,14.232,16.208,16.019,4.2-3.042,25.021-27.571,25.915-32.219q-2.435-16.024-4.862-32.039c-.9-7.337-.328-19.635-4.132-25.021C343.169,296.617,342.39,296.552,341.611,296.494Zm-187.732,4.321c.238.066.484.115.713.18-.09,5.583-12.543,21.971-2.878,27.718q1.894-1.168,3.779-2.336c2.173.984-2.943,8.354-3.6,9.174-.361.066-.721.123-1.082.189C139.122,328.164,147.55,308.783,153.879,300.815ZM308.851,311.8c3.181.074,25.39,11.887,25.915,13.322,1.164,3.124-9.625,22.414-11.691,24.291q-12.875-7.378-25.743-14.757C296.111,328.877,304.9,314.7,308.851,311.8Zm367.184,8.1q-12.322,9.346-24.652,18.717-.639,7.735-1.263,15.478c-2.574,18.225-1.574,42.836,20.7,40.68,6.731-.656,12.265-1.968,16.38-5.222,1.3-7.026-6.846-63.864-9.723-69.48Zm337.129,14.4c6.87.574,6.665,10.428-.9,7.92-1.082.3-2.156.6-3.238.9-.541.779-1.082,1.549-1.623,2.336,8.026,8.116,12.363-2.484,18.364-2.878l.541.541c.623,9.649-16.437,12.773-12.42,22.5,5.476,13.265,39.852-13.166,42.836-13.494.123.107.238.238.361.353l.18.541c-2.853,6.788-38.573,34.7-47.7,18.905-3.066-5.312,1.451-11.305,1.263-15.478q-4.5-2.976-9-5.944C997.924,343.659,1009.221,335.961,1013.164,334.3Zm-855.326,12.24c6.665-.139,21.455-1.435,24.119,2.878,4.206,6.837-14.97,31.531-18.544,34.375-4,3.206-22.619,13.257-28.612,12.429v-1.443q12.949-10.982,25.915-21.963c-.18-.3-.361-.6-.533-.894-5.353-1.32-30.112,2.894-30.6,2.148-2.984-4.493,8.7-23.791,11.879-25.193Zm335.326,2.156c5.067.41,9.805,5.64,5.936,10.264q-3.591-1.181-7.2-2.345c-4.714.9.369,25.644-3.96,30.416h-1.254q-4.771-8.006-9.543-16.019h-.361q-.984,1.537-1.984,3.058c-6.714-1.6-18.708-13.38-7.01-18,8.215-3.23,14.749,11.961,16.913,16.561h.721c.123-.115.238-.246.361-.353C483.9,363.072,485.982,351.431,493.164,348.693Zm-81.179,1.09c10.977.779,3.9,13.429,5.222,20.151.631,3.189,6.46,5.591,6.124,9.723l-.18.894c-.066.246-.123.484-.18.721-.18.3-.361.6-.541.9-.123.172-.238.361-.361.541-.361.353-.721.721-1.082,1.074h-.721q-2.878-3.234-5.755-6.477h-.721c-9.28,8.444-16.536,26.071-29.7,29.875l-.353-.713C391.251,395.587,405.5,388.93,410.9,375.7,413.616,369.057,390.2,358.227,411.985,349.783Zm-2.156,6.829c-.484.418-.959.836-1.443,1.263-.344,2.7,3.2,7.264,5.583,7.92l.541-.541C415.551,361.211,413.411,356.776,409.829,356.612Zm192.413,17.454c14.265.853,26.054,25.046,15.478,38.884l-3.6-.721c-.68,1.55-.959,3.033-2.7,3.6-.189-.172-.361-.353-.541-.533-1.853-14.24.107-18.487-11.887-25.382q-3.5-2.164-7.018-4.312c-.869-2.1.82-4.1,1.984-4.87,12.978-.033,18.34,14.544,21.053,26.456.3-.049.607-.115.9-.18,2.361-11.51-1.033-18.544-8.633-23.57q-3.16-1.808-6.3-3.6C599.529,377.641,601.07,375.255,602.242,374.066Zm-49.862.189c4.329.279,30.358,13.986,30.957,16.372.549,2.181-10.1,22.513-11.7,24.308q-16.11-8.018-32.219-16.019c-4.3,6.919-5.977,15.282-10.8,21.414-2.665.246-31.137-13.74-31.5-15.118-.59-2.222,10.781-22.316,12.24-23.217,4.3-2.656,23.381,13.306,30.416,11.51C543.7,387.774,546.371,377.846,552.38,374.255Zm392.025,0q15.3,6.382,30.6,12.773c.951,5.116-3.607,11.346-5.583,14.945q-1.894,4.857-3.779,9.715c-4.1,2.7-28.186-12.133-33.121-11.338-3.312,6.427-4.788,19.832-10.977,23.037-3.288,1.705-33.8-12.666-34.384-14.937-1.271-4.968,3.681-9.42,5.042-12.412,10.953-24.234,21.143,2.017,39.6.713C936.15,390.3,937.215,377.788,944.405,374.255Zm-178.37,4.5c7.3,2.017,16.913,25.9,4.14,28.792-3.607.82-5.55-2.156-8.1-2.878-2.787,2.927-6.911,10.543-12.961,6.124-3.115-2.279-5.632-20.84,0-22.324l.361.361c2.484,5.673-2.2,13.4,3.96,15.839,11.051-1.615.992-15.691,5.222-21.775.353-.066.713-.123,1.074-.18,3.558,2.935,4.034,22.439,12.248,16.38C772.66,392,758.911,384.732,766.036,378.756ZM276.271,390.627s-.91,17.643,1.623,21.783c1.443-.836,2.878-1.672,4.32-2.517,4.427,2.705.467,14.035-4.862,11.158C268.22,416.115,271.18,397.62,276.271,390.627Zm577.421,16.921c.3.066.6.123.9.18,1.156,4.419-9.641,16.142-1.8,20.881.9-1.262,1.8-2.517,2.7-3.779.426.066.844.123,1.263.18,3.05,4.747-1.287,15.29-7.378,10.445C841.173,428.929,848.781,411.762,853.691,407.548Zm-532.42,9.362c-2.263,2.911-27.948,39.048-17.462,43.377,9.084,3.755,35.212-11.2,36.359-15.118C341.832,439.5,324.706,417.386,321.271,416.91Zm118.432,3.6c-16.118,6.747-46.952,44.008-30.055,59.4,2.287,2.074,3.788,6.222,7.2,7.009,5.558,1.279,37.548-31.317,38.516-38.7s-2.984-15.4-5.936-19.438C446.983,425.453,445.311,420.608,439.7,420.509Zm-255.229,1.984c-3.64,1.254-11.158,5.058-10.8,9.362,4.755,2.755,19.717,2.427,24.66-.189l.18-.18-.18-1.254C194.395,427.38,190.992,422.575,184.475,422.493Zm392.746,8.633c4.107.311,27.349,12.068,28.079,14.585,1.476,5.058-9.059,25.98-12.6,26.644-8.5-4.755-19.127-8.362-27.718-13.683C565.325,448.974,571.2,435.652,577.221,431.126Zm-112.5,13.683c.992-3.017-1.828,10.6-7.756,22.865-6.247,12.937-17,24.39-17,24.39a45.14,45.14,0,0,0,20.086-2.025c22.652-7.936,58.068-25.39,59.38-32.088h-.18c-5.6-10.117-33.277-3.968-45-7.739Q469.5,447.519,464.724,444.809Zm-199.612,5.944c10.773.123,2.828,12.822,4.14,18.9.746,3.46,4.862,4.468,5.222,8.821-.959.894-1.927,1.8-2.886,2.7-1.672-1.017-3.353-2.041-5.034-3.058-4.181,2.312-8.124,12.748-10.805,16.741-2.566,3.829-28.268,26.71-30.416,25.923,4.411-11.658,39.393-33.785,38.163-46.632C252.856,466.075,249.339,457.147,265.113,450.753Zm491.921,3.779c-3.968,1.123-7.838,1.14-10.617,3.23l-.18,1.271c2.509,2.574,21.11,13.888,25.2,11.7C772.693,463.1,764.953,454.68,757.034,454.532Zm-117,1.443c-11.174,5.8-26.71,24.144-15.118,35.818q3.862,2.779,7.739,5.567c2.664.484,18.372-14.142,19.086-16.552C654.424,471.732,647.366,456.516,640.036,455.975Zm-377.621,2.509c-1.14.853-2.287,1.681-3.419,2.533.6,2.279,4.452,5.312,6.837,5.747l.721-.721C266.777,462.345,265.695,458.746,262.416,458.484Zm739.41,8.461,2.517.721a6.625,6.625,0,0,1-1.623,5.763q-43.09,20.967-86.213,41.942c-.18-.189-.361-.361-.541-.541C913.777,504.829,989.365,474.339,1001.826,466.944ZM161.8,477.2c3.607.066,7.452,3.091,7.559,6.665-.656.787-1.32,1.566-1.984,2.345q-2.878-.713-5.755-1.443c-4.009,4.771-.049,25.185-6.124,27.358-3.919-3.164-4.87-10.387-7.92-14.4-11.879-.353-12.56-13.953-5.034-14.216,5.985,3.386,6.854,11.543,12.051,15.118l.73-.361C157.74,490.539,156.633,481.98,161.8,477.2ZM812.11,496.294c3.066,1.812-8.682,21.66-1.615,27,.18-.066.361-.123.541-.18.672-2.591.574-4.517,3.6-4.87.3.189.6.369.894.549,3.476,4.993-3.369,15.9-8.641,11.879C798.066,523.914,807.06,500.779,812.11,496.294Zm-57.232,32.039q14.3,6.382,28.612,12.773c1.861,3.017-7.723,26-10.436,26.636-1.845.443-29.128-13.429-29.7-14.749C741.023,547.566,751.451,530.448,754.878,528.333Zm-83.7,18.889c4.763.025,12.068,4.616,12.953,8.28,2.2,9.1-12.42,6.083-13.314,12.781-1.238,9.207,9.617,30.022,3.058,41.582-.361.057-.721.115-1.082.18-.18-.18-.361-.353-.541-.541q-.541-10.268-1.074-20.52C669.247,577.711,658.491,554.141,671.182,547.222Zm-.18,7.559c-.541.91-1.082,1.8-1.623,2.705.238.115.475.246.721.353,1.2-.41,2.4-.828,3.6-1.254l.18-.533-.18-.549ZM296.25,556.224c.721.3,1.443.6,2.164.9.123,2.361.082,3.1-1.263,4.32q-18.089,10.527-36.179,21.053-10.44,7.206-20.881,14.4H239.01l-.18-.18c-.172-.18-.353-.353-.533-.541C236.829,586.41,286.969,562.307,296.25,556.224Zm-131.935,14.4c.246.065.484.131.721.18,1.558,4.894-11.174,27.825,0,30.243l.9-.361c.894-1.754,1.279-4.238,3.6-4.14.18.3.361.6.533.893,1.017,4.837-4.3,14.519-9.535,9.551C152.969,599.8,158.207,576.064,164.315,570.62Zm137.879,17.1c22.086-.771,15.946,28.776-1.443,26.1C286.182,611.587,289.97,591.853,302.194,587.721Zm654.632,16.028Q972.21,610.4,987.6,617.063c.541,4.575-2.919,8.633-4.321,12.068-1.656,4.075-2.919,10.633-6.477,12.773-5.206,3.124-29.35-9.526-32.4-12.06C939.314,625.6,952.645,604.774,956.826,603.749Zm-648.877,11.51c18.143.18,15.97,28.358-3.058,25.21C288.724,637.772,294.856,619.793,307.949,615.259Zm322.373,4.5c7.7-.139,43.016,1.025,43.377,3.058-16.29,5.427-64.963-8.157-67.5,11.879-1.418,11.2,21.2,5.124,27.177,6.665,1.951,5.239-7.083,6.288-5.936,12.429.3.172.59.352.894.533,3.738.476,13.83-5.058,15.659-7.739l-.361-.721c-3.46-1.943-8.051-4.46-9.535-8.28-3.451-8.87,4.288-7.7,8.641-5.042-.246,1.2-.484,2.4-.721,3.6,4.116,6.468,10.313-.828,7.018,11.338-1.32,4.894-5.837,6.165-8.461,9.723.418,1.2.844,2.4,1.263,3.6,4.64,1.541,12.511-3.124,14.937-5.583-1.968-4.657-6.149-8.608.721-12.593,4.763.951,5.017,5.353,9.723,6.468,1.427-.705,6.977-2.41,7.551-3.951-3.468-.566-6-.467-8.1-2.164-1.476-7.428,9.108-7.518,13.142-10.789-.836-7.747,7.829-9.846,11.166-3.968,2.664,4.722-5.665,7.928-8.28,9.182v.9c4.189.344,9.764-3.443,13.134-1.082.787,8.264-16.2,14.831-23.759,16.019l-.18,1.082.18.18c10.486,3.845,23.816-4.066,28.62-11.7v-.9c-1.3-.893-2.164-1.468-1.984-3.427,1.213-2.755,6.3-6.567,8.108-1.787,1.722,4.542-4.64,11.068-7.026,12.773V650c.123.115.246.246.361.361l12.42-2.164c6.878,2.058,4.279,13.027,0,16.552-8.8,7.288-23.6,6.395-36.179,10.092-.541.172-1.074.352-1.623.533-5.608,3.4-8.485,15.527-14.757,17.29-.18-.188-.361-.369-.541-.549,1.082-7.264,9.2-10.068,10.986-16.741-.18-.3-.361-.6-.541-.894q-5.226-1.353-10.445-2.7c-3.312,4.739-9.6,10.231-14.216,2.337l-1.443-4.681c-2.156-1.14-4.32-2.287-6.477-3.419-.484-2.4-.959-4.8-1.443-7.2-.18-.057-.361-.123-.541-.189-2.648,1.271-9.723,5.649-11.338.549l.721-10.092c-9.543-2.525-21.02,1.361-23.939-8.813C597,627.048,620.434,622.294,630.321,619.76Zm-253.433,6.3c4.14.533,13.4,8.911,9.543,13.683l-10.445,2.878c-.131,7.059,12.552,29.637,7.92,36.72h-.894q-6.124-18.286-12.24-36.54c.615-5.124,3.665-5.4,5.936-8.461l-.18-.541-.721-.361c-1.517,1.017-2.828,1.992-4.5.9C370.493,629.983,373.9,627.327,376.888,626.065Zm-154.611.533c8.838.705,23.677,6.534,28.792,11.879.254,4.247-6.46,24.5-9.354,25.029-2.632.476-28.235-11.625-28.62-12.6C211.463,646.806,220.252,628.459,222.277,626.6Zm436.656,1.09c3.722-.148,6.346.4,7.206,3.23-.7,4.025-7.215,8.453-11.346,8.28-.115-.107-.238-.238-.352-.353l-.18-.541c1.2-1.14,2.4-2.279,3.6-3.419-2.255-.656-3.624-.361-4.862-1.976C653.686,629.418,655.539,628.524,658.933,627.688ZM824.35,635.78l1.443.721c.041,6.813-9.617,16.306-5.944,23.578.426.066.844.123,1.263.189,1.2-1.632,2.181-3.607,4.5-4.14.238.107.484.238.713.353,3.542,5.075-6.731,15.856-11.158,9.9C810.642,660.276,820.529,638.928,824.35,635.78ZM521.063,646.4c16.241.926,3.214,17.323,1.984,23.4,6.395,10.3,33.851-8.3,39.237-9.9.238.172.484.361.713.541.066.115.123.229.18.352-3.3,7.141-36.031,26.357-44.459,15.126-6.206-8.3,10.207-15.159,5.583-20.889-4.8-5.944-9.9,2.591-11.7,5.23h-1.435c-.18-.254-.361-.484-.541-.721C510.954,652.684,515.39,648.167,521.063,646.4Zm186.47,9c-5.058,1.713-27.833,5.214-23.759,11.338,5.107-.869,8.518-4.64,11.527-5.05l3.591,2.164c2.181-1.328,2.558-4.64,5.222-4.854q1.537,1.168,3.058,2.337l4.5-2.878-.172-1.8C710.172,656.234,708.853,655.824,707.533,655.406ZM662.18,656.48c-4.435,4.271-8.674,6.87-13.863,10.625-.057.361-.123.713-.18,1.074q1.439,1.168,2.886,2.345a3.644,3.644,0,0,0,3.771-1.263c1.689-1.812,2.32-5.222,5.222-5.755,5.7-1.057,20,10.477,20.52-1.812l-.721-.721c-1.8.787-3.6,1.574-5.395,2.353C668.632,662.563,666.722,657.3,662.18,656.48Z" transform="translate(0)" fill-rule="evenodd" fill="url(#linear-gradient-2)"/>
    </g>
  </g>
</svg>
